<svg xmlns="http://www.w3.org/2000/svg" xmlns:xlink="http://www.w3.org/1999/xlink" width="768" viewBox="0 0 768 768" height="768" version="1.0"><defs><g id="a"><path d="M 18.5625 -20.421875 C 18.5625 -21.578125 18.429688 -22.570312 18.171875 -23.40625 C 17.921875 -24.238281 17.507812 -24.925781 16.9375 -25.46875 C 16.375 -26.007812 15.628906 -26.410156 14.703125 -26.671875 C 13.785156 -26.929688 12.648438 -27.0625 11.296875 -27.0625 L 9.171875 -27.0625 L 9.171875 -13.328125 L 11.421875 -13.328125 C 12.773438 -13.328125 13.910156 -13.488281 14.828125 -13.8125 C 15.742188 -14.132812 16.476562 -14.597656 17.03125 -15.203125 C 17.582031 -15.804688 17.972656 -16.546875 18.203125 -17.421875 C 18.441406 -18.304688 18.5625 -19.304688 18.5625 -20.421875 Z M 9.171875 -11.375 L 9.171875 -1.734375 L 13.78125 -1.140625 L 13.78125 0 L 1.5625 0 L 1.5625 -1.140625 L 5 -1.734375 L 5 -27.296875 L 1.28125 -27.859375 L 1.28125 -29 L 12.21875 -29 C 14.25 -29 15.945312 -28.78125 17.3125 -28.34375 C 18.675781 -27.90625 19.769531 -27.300781 20.59375 -26.53125 C 21.414062 -25.757812 22 -24.851562 22.34375 -23.8125 C 22.6875 -22.769531 22.859375 -21.65625 22.859375 -20.46875 C 22.859375 -19.28125 22.6875 -18.140625 22.34375 -17.046875 C 22.007812 -15.953125 21.441406 -14.984375 20.640625 -14.140625 C 19.835938 -13.304688 18.765625 -12.632812 17.421875 -12.125 C 16.085938 -11.625 14.425781 -11.375 12.4375 -11.375 Z M 9.171875 -11.375"/></g><g id="b"><path d="M 6.34375 -14.53125 C 6.34375 -12.507812 6.492188 -10.6875 6.796875 -9.0625 C 7.097656 -7.4375 7.613281 -6.046875 8.34375 -4.890625 C 9.082031 -3.734375 10.070312 -2.84375 11.3125 -2.21875 C 12.550781 -1.59375 14.109375 -1.28125 15.984375 -1.28125 C 17.859375 -1.28125 19.414062 -1.59375 20.65625 -2.21875 C 21.894531 -2.84375 22.882812 -3.734375 23.625 -4.890625 C 24.375 -6.046875 24.898438 -7.4375 25.203125 -9.0625 C 25.503906 -10.6875 25.65625 -12.507812 25.65625 -14.53125 C 25.65625 -16.539062 25.503906 -18.351562 25.203125 -19.96875 C 24.898438 -21.582031 24.375 -22.953125 23.625 -24.078125 C 22.882812 -25.210938 21.894531 -26.082031 20.65625 -26.6875 C 19.414062 -27.289062 17.859375 -27.59375 15.984375 -27.59375 C 14.109375 -27.59375 12.550781 -27.289062 11.3125 -26.6875 C 10.070312 -26.082031 9.082031 -25.210938 8.34375 -24.078125 C 7.613281 -22.953125 7.097656 -21.582031 6.796875 -19.96875 C 6.492188 -18.351562 6.34375 -16.539062 6.34375 -14.53125 Z M 1.8125 -14.53125 C 1.8125 -17.101562 2.125 -19.316406 2.75 -21.171875 C 3.382812 -23.035156 4.300781 -24.570312 5.5 -25.78125 C 6.695312 -26.988281 8.171875 -27.878906 9.921875 -28.453125 C 11.679688 -29.035156 13.703125 -29.328125 15.984375 -29.328125 C 18.191406 -29.328125 20.171875 -29.035156 21.921875 -28.453125 C 23.671875 -27.878906 25.15625 -26.988281 26.375 -25.78125 C 27.601562 -24.570312 28.539062 -23.035156 29.1875 -21.171875 C 29.84375 -19.316406 30.171875 -17.101562 30.171875 -14.53125 C 30.171875 -11.96875 29.84375 -9.742188 29.1875 -7.859375 C 28.539062 -5.984375 27.601562 -4.429688 26.375 -3.203125 C 25.15625 -1.972656 23.671875 -1.054688 21.921875 -0.453125 C 20.171875 0.140625 18.191406 0.4375 15.984375 0.4375 C 13.773438 0.4375 11.796875 0.140625 10.046875 -0.453125 C 8.304688 -1.054688 6.820312 -1.972656 5.59375 -3.203125 C 4.375 -4.429688 3.4375 -5.984375 2.78125 -7.859375 C 2.132812 -9.742188 1.8125 -11.96875 1.8125 -14.53125 Z M 1.8125 -14.53125"/></g><g id="c"><path d="M 9.171875 -12.71875 L 9.171875 -1.734375 L 13.5625 -1.140625 L 13.5625 0 L 1.5625 0 L 1.5625 -1.140625 L 5 -1.734375 L 5 -27.296875 L 1.28125 -27.859375 L 1.28125 -29 L 13.796875 -29 C 15.828125 -29 17.523438 -28.816406 18.890625 -28.453125 C 20.253906 -28.097656 21.347656 -27.582031 22.171875 -26.90625 C 22.992188 -26.238281 23.578125 -25.429688 23.921875 -24.484375 C 24.265625 -23.535156 24.4375 -22.460938 24.4375 -21.265625 C 24.4375 -20.148438 24.273438 -19.15625 23.953125 -18.28125 C 23.628906 -17.414062 23.191406 -16.648438 22.640625 -15.984375 C 22.097656 -15.316406 21.460938 -14.765625 20.734375 -14.328125 C 20.015625 -13.890625 19.269531 -13.554688 18.5 -13.328125 L 26.34375 -1.734375 L 29.484375 -1.140625 L 29.484375 0 L 22.53125 0 L 14.390625 -12.71875 Z M 20.140625 -20.953125 C 20.140625 -22.109375 20 -23.078125 19.71875 -23.859375 C 19.445312 -24.640625 19.019531 -25.265625 18.4375 -25.734375 C 17.851562 -26.210938 17.101562 -26.550781 16.1875 -26.75 C 15.269531 -26.957031 14.164062 -27.0625 12.875 -27.0625 L 9.171875 -27.0625 L 9.171875 -14.671875 L 13 -14.671875 C 14.320312 -14.671875 15.4375 -14.785156 16.34375 -15.015625 C 17.257812 -15.253906 18 -15.628906 18.5625 -16.140625 C 19.125 -16.660156 19.523438 -17.316406 19.765625 -18.109375 C 20.015625 -18.898438 20.140625 -19.847656 20.140625 -20.953125 Z M 20.140625 -20.953125"/></g><g id="d"><path d="M 6.8125 0 L 6.8125 -1.140625 L 11.421875 -1.734375 L 11.421875 -27.140625 L 10.3125 -27.140625 C 8.425781 -27.140625 6.84375 -27.097656 5.5625 -27.015625 C 4.28125 -26.929688 3.367188 -26.832031 2.828125 -26.71875 L 2.25 -22.1875 L 0.796875 -22.1875 L 0.796875 -29 L 26.328125 -29 L 26.328125 -22.1875 L 24.859375 -22.1875 L 24.265625 -26.71875 C 24.003906 -26.769531 23.617188 -26.816406 23.109375 -26.859375 C 22.597656 -26.898438 22.003906 -26.9375 21.328125 -26.96875 C 20.648438 -27.007812 19.910156 -27.039062 19.109375 -27.0625 C 18.304688 -27.082031 17.488281 -27.09375 16.65625 -27.09375 L 15.59375 -27.09375 L 15.59375 -1.734375 L 20.203125 -1.140625 L 20.203125 0 Z M 6.8125 0"/></g></defs><path fill="#FFF" d="M-76.8 -76.8H844.8000000000001V844.8000000000001H-76.8z"/><path fill="#FFF" d="M-76.8 -76.8H844.8000000000001V844.8000000000001H-76.8z"/><path fill="#FFF" d="M-76.8 -76.8H844.8000000000001V844.8000000000001H-76.8z"/><path fill="#076BAC" d="M 447.480469 366.042969 C 447.480469 371.972656 446.277344 377.21875 443.871094 381.777344 C 441.464844 386.332031 438.28125 390.117188 434.15625 393.039062 C 429.339844 396.5625 424.269531 399.058594 418.765625 400.605469 C 413.265625 402.066406 406.214844 402.839844 397.53125 402.839844 L 360.992188 402.839844 L 360.992188 283.074219 L 394.78125 283.074219 C 403.808594 283.074219 410.6875 283.332031 415.15625 283.933594 C 419.710938 284.535156 424.011719 285.824219 428.222656 287.890625 C 432.78125 290.210938 436.132812 293.21875 438.195312 296.917969 C 440.347656 300.613281 441.378906 305 441.378906 310.070312 C 441.378906 315.660156 439.832031 320.730469 436.648438 325.203125 C 433.46875 329.675781 429.082031 333.113281 423.496094 335.691406 L 423.496094 336.378906 C 431.0625 338.273438 436.992188 341.796875 441.121094 346.957031 C 445.417969 352.027344 447.480469 358.390625 447.480469 366.042969 M 423.839844 312.304688 C 423.839844 309.382812 423.324219 306.890625 422.292969 304.828125 C 421.261719 302.675781 419.625 301.042969 417.304688 299.753906 C 414.554688 298.292969 411.546875 297.433594 408.105469 297.089844 C 404.753906 296.746094 400.109375 296.574219 394.179688 296.574219 L 377.929688 296.574219 L 377.929688 331.652344 L 397.1875 331.652344 C 402.519531 331.652344 406.386719 331.394531 408.878906 330.878906 C 411.375 330.363281 413.953125 329.328125 416.703125 327.695312 C 419.28125 326.148438 421.089844 324.085938 422.207031 321.59375 C 423.324219 319.097656 423.839844 316.003906 423.839844 312.304688 M 429.859375 366.730469 C 429.859375 362.257812 429.167969 358.476562 427.792969 355.554688 C 426.417969 352.628906 423.667969 350.136719 419.453125 348.074219 C 416.789062 346.695312 413.867188 345.835938 410.6875 345.492188 C 407.503906 345.148438 403.035156 344.890625 397.1875 344.890625 L 377.929688 344.890625 L 377.929688 389.253906 L 391.6875 389.253906 C 399.078125 389.253906 404.925781 388.910156 409.222656 388.308594 C 413.523438 387.621094 417.304688 386.332031 420.488281 384.183594 C 423.667969 382.121094 425.988281 379.710938 427.535156 377.046875 C 429.082031 374.46875 429.859375 370.941406 429.859375 366.730469"/><path fill="#076BAC" d="M 464.332031 402.839844 L 464.332031 283.074219 L 544.199219 283.074219 L 544.199219 297.261719 L 481.269531 297.261719 L 481.269531 330.105469 L 539.902344 330.105469 L 539.902344 344.289062 L 481.269531 344.289062 L 481.269531 388.738281 L 544.199219 388.738281 L 544.199219 402.839844 Z M 464.332031 402.839844"/><path fill="#076BAC" d="M 598.191406 404.988281 C 588.992188 404.988281 581.082031 404.128906 574.632812 402.324219 C 568.1875 400.519531 562.082031 398.28125 556.410156 395.703125 L 556.410156 375.757812 L 557.613281 375.757812 C 563.199219 380.65625 569.5625 384.527344 576.613281 387.191406 C 583.660156 389.859375 590.539062 391.234375 597.074219 391.234375 C 606.445312 391.234375 613.492188 389.425781 618.308594 385.730469 C 623.121094 382.035156 625.53125 377.21875 625.53125 371.199219 C 625.53125 366.386719 624.242188 362.515625 621.746094 359.507812 C 619.253906 356.5 615.214844 354.261719 609.796875 352.800781 C 605.84375 351.769531 602.230469 350.824219 599.050781 350.136719 C 595.785156 349.449219 591.742188 348.503906 586.84375 347.300781 C 582.457031 346.265625 578.503906 344.890625 575.0625 343.171875 C 571.625 341.539062 568.53125 339.304688 565.863281 336.636719 C 563.199219 333.972656 561.222656 330.878906 559.761719 327.351562 C 558.300781 323.828125 557.613281 319.699219 557.613281 314.972656 C 557.613281 305.257812 561.652344 297.089844 569.648438 290.554688 C 577.644531 284.019531 587.960938 280.667969 600.425781 280.667969 C 607.5625 280.667969 614.265625 281.355469 620.628906 282.644531 C 626.992188 284.019531 632.835938 285.910156 638.253906 288.320312 L 638.253906 307.40625 L 636.792969 307.40625 C 632.75 303.878906 627.59375 300.871094 621.230469 298.292969 C 614.871094 295.714844 608.25 294.421875 601.285156 294.421875 C 593.460938 294.421875 587.101562 296.144531 582.199219 299.582031 C 577.386719 303.019531 574.890625 307.578125 574.890625 313.167969 C 574.890625 318.238281 576.355469 322.28125 579.191406 325.289062 C 582.027344 328.296875 586.15625 330.449219 591.570312 331.910156 C 595.183594 332.855469 599.566406 333.886719 604.726562 335.003906 C 609.882812 336.121094 614.179688 337.238281 617.621094 338.183594 C 626.390625 340.679688 632.835938 344.546875 636.878906 349.621094 C 640.917969 354.691406 642.980469 360.96875 642.980469 368.449219 C 642.980469 373.09375 641.949219 377.734375 639.972656 382.292969 C 637.996094 386.847656 635.074219 390.71875 631.460938 393.898438 C 627.335938 397.421875 622.691406 400.089844 617.535156 401.980469 C 612.460938 404.042969 605.929688 404.988281 598.191406 404.988281"/><path fill="#076BAC" d="M 690.09375 402.839844 L 690.09375 297.261719 L 647.28125 297.261719 L 647.28125 283.074219 L 749.84375 283.074219 L 749.84375 297.261719 L 707.03125 297.261719 L 707.03125 402.839844 Z M 690.09375 402.839844"/><g fill="#076BAC"><use x="607.837" y="449.763" xmlns:xlink="http://www.w3.org/1999/xlink" xlink:href="#a" xlink:type="simple" xlink:actuate="onLoad" xlink:show="embed"/></g><g fill="#076BAC"><use x="632.468" y="449.763" xmlns:xlink="http://www.w3.org/1999/xlink" xlink:href="#b" xlink:type="simple" xlink:actuate="onLoad" xlink:show="embed"/></g><g fill="#076BAC"><use x="664.452" y="449.763" xmlns:xlink="http://www.w3.org/1999/xlink" xlink:href="#c" xlink:type="simple" xlink:actuate="onLoad" xlink:show="embed"/></g><g fill="#076BAC"><use x="691.331" y="449.763" xmlns:xlink="http://www.w3.org/1999/xlink" xlink:href="#d" xlink:type="simple" xlink:actuate="onLoad" xlink:show="embed"/></g><g fill="#076BAC"><use x="717.584" y="449.763" xmlns:xlink="http://www.w3.org/1999/xlink" xlink:href="#b" xlink:type="simple" xlink:actuate="onLoad" xlink:show="embed"/></g><path fill="#076BAC" d="M 297.460938 403.011719 L 269.347656 386.847656 L 196.011719 386.847656 L 167.988281 403.011719 C 194.808594 449.695312 275.109375 526.042969 362.113281 532.664062 C 331.847656 515.726562 283.617188 454.683594 297.460938 403.011719"/><path fill="#F2A026" d="M 237.367188 315.316406 L 236.851562 314.371094 Z M 317.234375 162.105469 C 317.664062 196.839844 288.949219 269.144531 237.28125 282.988281 L 237.28125 315.402344 L 273.902344 378.851562 L 301.929688 395.101562 C 329.011719 348.503906 355.0625 240.6875 317.234375 162.105469"/><path fill="#70B22C" d="M 191.457031 378.851562 L 190.941406 379.796875 Z M 228.167969 282.988281 C 174.347656 282.902344 68 314.285156 18.824219 386.332031 C 48.65625 368.535156 125.6875 357.273438 163.515625 395.101562 L 191.542969 378.851562 L 228.167969 315.402344 Z M 228.167969 282.988281"/><path fill="#076BAC" d="M 215.527344 360.367188 C 215.527344 350.910156 223.179688 343.171875 232.722656 343.171875 C 242.179688 343.171875 249.917969 350.824219 249.917969 360.367188 C 249.917969 369.910156 242.265625 377.5625 232.722656 377.5625 C 223.265625 377.5625 215.527344 369.824219 215.527344 360.367188"/></svg>