<svg xmlns="http://www.w3.org/2000/svg" viewBox="0 0 568.39 144.03"><defs><style>.cls-1{fill:#f26c2a;}.cls-2{fill:#f5a37f;}</style></defs><g id="Layer_2" data-name="Layer 2"><g id="Vrstva_1" data-name="Vrstva 1"><path class="cls-1" d="M233.79,54.24c0,12.6-9.86,19.88-28.76,19.88H167.85V1.25H203c18,0,27.22,7.6,27.22,19a17.53,17.53,0,0,1-9.56,16c8,2.6,13.15,8.85,13.15,18M184.38,14V31.13h16.54c8.12,0,12.53-2.92,12.53-8.64S209,14,200.92,14Zm32.67,38.52c0-6.14-4.62-9.06-13.25-9.06H184.38v18H203.8c8.63,0,13.25-2.7,13.25-9m42.47,8.12V43.72H292.9V30.6H259.52V14.78h37.8V1.25H243V74.12h55.67V60.59Zm48.26,6.35c6.37,5,17.87,8.43,29.27,8.43,20.55,0,30.51-10.41,30.51-22.59,0-26.75-41.81-17.49-41.81-30.92,0-4.58,3.8-8.33,13.66-8.33a40.22,40.22,0,0,1,19.93,5.73l5.14-12.81C357.8,2.19,348.56,0,339.52,0c-20.44,0-30.31,10.31-30.31,22.7C309.21,49.76,351,40.39,351,54c0,4.48-4,7.81-13.87,7.81a42,42,0,0,1-23.72-7.6l-5.65,12.7M396,74.12h16.64V15h23V1.25H372.94V15h23Zm-229.78,41.7c0,16.47,12.19,28.21,29.36,28.21,10.57,0,19-4.64,23.17-12.87l-9.76-5.77A15.3,15.3,0,0,1,195.43,133c-9.35,0-16.46-6.49-16.46-17.19s7.11-17.2,16.46-17.2a15.3,15.3,0,0,1,13.51,7.62l9.76-5.77c-4.17-8.34-12.6-12.76-23.17-12.76-17.17,0-29.36,11.63-29.36,28.11m59.76,0c0-16.48,12.2-28.11,28.86-28.11,16.87,0,29,11.63,29,28.11S271.66,144,254.79,144c-16.66,0-28.86-11.74-28.86-28.21m45,0c0-10.51-6.9-17.2-16.15-17.2s-16,6.69-16,17.2,6.91,17.19,16,17.19,16.15-6.69,16.15-17.19m64.74-27.5v27.8c0,11-6,16.58-14.83,16.58-8,0-12.7-4.74-12.7-14.73V88.32h-12.7v31.41c0,16.57,9.45,24.3,23.37,24.3,7,0,13.41-2.68,17.47-7.73v7h12.09v-55ZM396,87.7c-9,0-15.65,2.89-19.3,8.65v-8H364.56v55h12.69V116.64c0-11.23,6.1-17,15.75-17A15.59,15.59,0,0,1,396,100V87.7m6.78,50.15c4.88,3.5,13.92,6.18,23,6.18,15.24,0,24.59-6.69,24.59-17,0-21.52-33.53-11.64-33.53-22.76,0-3.6,3.66-6.17,11.38-6.17a29.31,29.31,0,0,1,15.55,4.12l4.87-9.79c-4.87-3-13.1-4.73-20.32-4.73-14.63,0-23.87,6.79-23.87,17.19,0,21.93,33.52,12,33.52,22.55,0,3.81-3.35,6.08-11.37,6.08a36.15,36.15,0,0,1-18.9-5.46l-4.88,9.78m111-17.91H471.15c1.52,8,8.12,13.18,17.57,13.18,6.1,0,10.87-2,14.74-6l6.8,7.93c-4.87,5.87-12.5,9-21.84,9-18.19,0-30-11.84-30-28.21s11.88-28.11,28-28.11c15.85,0,27.43,11.22,27.43,28.42,0,1-.1,2.57-.2,3.81M471,111.39h30.79c-1-7.93-7-13.39-15.34-13.39s-14.23,5.36-15.45,13.39m49.8,26.46c4.88,3.5,13.92,6.18,23,6.18,15.25,0,24.59-6.69,24.59-17,0-21.52-33.53-11.63-33.53-22.75,0-3.61,3.66-6.18,11.38-6.18a29.4,29.4,0,0,1,15.55,4.12l4.87-9.79c-4.87-3-13.1-4.73-20.32-4.73-14.63,0-23.87,6.79-23.87,17.19,0,21.93,33.53,12,33.53,22.55,0,3.81-3.36,6.08-11.38,6.08a36.15,36.15,0,0,1-18.9-5.46l-4.88,9.78M73.44,101.44,112,45.91l27.5,27.82q-13.67-33.48-27.34-67L73.44,101.44"/><path class="cls-2" d="M41,143.31l58.1-142L0,42.86,58.29,43,41,143.31"/></g></g></svg>