<?xml version="1.0" encoding="UTF-8"?><svg xmlns="http://www.w3.org/2000/svg" xmlns:xlink="http://www.w3.org/1999/xlink" contentScriptType="text/ecmascript" width="768" zoomAndPan="magnify" contentStyleType="text/css" viewBox="0 0 768 767.999994" height="767.999994" preserveAspectRatio="xMidYMid meet" version="1.0"><rect x="-76.8" width="921.6" fill="rgb(100%, 100%, 100%)" y="-76.799999" height="921.599993" fill-opacity="1"/><rect x="-76.8" width="921.6" fill="rgb(20, 65, 115)" y="-76.799999" height="921.599993" fill-opacity="1"/><path fill="rgb(100%, 100%, 100%)" d="M 620.285156 746.378906 L 594.339844 746.378906 L 594.339844 570.722656 C 594.339844 570.015625 594.269531 569.3125 594.132812 568.613281 C 593.996094 567.917969 593.789062 567.242188 593.515625 566.585938 C 593.246094 565.929688 592.914062 565.308594 592.519531 564.71875 C 592.125 564.128906 591.675781 563.582031 591.175781 563.078125 C 590.671875 562.578125 590.125 562.128906 589.535156 561.734375 C 588.945312 561.339844 588.324219 561.007812 587.667969 560.738281 C 587.011719 560.464844 586.335938 560.257812 585.636719 560.121094 C 584.941406 559.984375 584.238281 559.914062 583.53125 559.914062 L 508.113281 559.914062 C 507.507812 543.652344 505.777344 537.6875 500.761719 532.757812 C 499.558594 531.550781 498.246094 530.476562 496.832031 529.527344 C 495.417969 528.582031 493.921875 527.78125 492.347656 527.128906 C 490.777344 526.476562 489.15625 525.980469 487.484375 525.648438 C 485.816406 525.316406 484.128906 525.148438 482.425781 525.144531 C 480.824219 525.144531 479.230469 525.078125 477.632812 524.945312 C 476.039062 524.8125 474.453125 524.613281 472.875 524.355469 C 471.296875 524.09375 469.734375 523.765625 468.183594 523.378906 C 466.628906 522.988281 465.097656 522.539062 463.582031 522.023438 C 462.066406 521.507812 460.578125 520.933594 459.109375 520.300781 C 457.640625 519.664062 456.203125 518.96875 454.789062 518.21875 C 453.378906 517.464844 452 516.65625 450.65625 515.789062 C 449.308594 514.925781 448 514.007812 446.730469 513.035156 C 445.460938 512.066406 444.230469 511.042969 443.042969 509.972656 C 441.855469 508.898438 440.714844 507.78125 439.617188 506.617188 C 438.523438 505.453125 437.472656 504.246094 436.476562 502.996094 C 435.476562 501.746094 434.53125 500.457031 433.640625 499.128906 C 432.746094 497.800781 431.910156 496.441406 431.128906 495.046875 C 430.34375 493.648438 429.621094 492.226562 428.957031 490.769531 C 428.289062 489.316406 427.683594 487.839844 427.136719 486.335938 C 426.59375 484.832031 426.109375 483.308594 425.6875 481.765625 C 425.265625 480.222656 424.910156 478.664062 424.613281 477.09375 C 424.320312 475.519531 424.089844 473.9375 423.925781 472.347656 C 423.757812 470.757812 423.65625 469.160156 423.621094 467.5625 C 423.585938 465.964844 423.617188 464.367188 423.710938 462.769531 C 423.804688 461.171875 423.964844 459.582031 424.1875 457.996094 C 424.414062 456.414062 424.699219 454.84375 425.050781 453.28125 C 425.40625 451.722656 425.820312 450.179688 426.296875 448.652344 C 426.777344 447.125 427.316406 445.621094 427.914062 444.136719 C 428.515625 442.65625 429.175781 441.199219 429.894531 439.769531 C 430.613281 438.34375 431.390625 436.945312 432.222656 435.578125 C 433.054688 434.214844 433.941406 432.886719 434.882812 431.589844 C 435.824219 430.296875 436.816406 429.046875 437.859375 427.832031 C 438.902344 426.621094 439.996094 425.453125 441.132812 424.328125 C 442.269531 423.207031 443.453125 422.128906 444.679688 421.101562 C 445.90625 420.074219 447.171875 419.101562 448.476562 418.175781 C 449.78125 417.25 451.125 416.382812 452.5 415.566406 C 452.5 415.566406 457.171875 413.320312 458.640625 412.453125 C 503.875 388.757812 542.015625 337.902344 568.222656 271.480469 C 572.398438 269.390625 576.5 267.15625 580.527344 264.785156 C 584.550781 262.410156 588.488281 259.902344 592.339844 257.257812 C 596.191406 254.613281 599.949219 251.839844 603.609375 248.9375 C 607.269531 246.03125 610.828125 243.007812 614.28125 239.859375 C 617.730469 236.710938 621.070312 233.445312 624.300781 230.066406 C 627.527344 226.691406 630.636719 223.203125 633.621094 219.613281 C 636.609375 216.019531 639.46875 212.328125 642.203125 208.539062 C 644.9375 204.75 647.535156 200.871094 650.003906 196.902344 C 652.46875 192.933594 654.796875 188.886719 656.984375 184.757812 C 659.171875 180.628906 661.214844 176.429688 663.109375 172.160156 C 665.007812 167.890625 666.757812 163.558594 668.359375 159.167969 C 669.957031 154.78125 671.40625 150.339844 672.699219 145.851562 C 673.992188 141.359375 675.128906 136.832031 676.113281 132.265625 C 677.09375 127.695312 677.917969 123.101562 678.582031 118.476562 C 679.25 113.851562 679.753906 109.207031 680.101562 104.550781 C 680.445312 99.890625 680.632812 95.222656 680.65625 90.550781 C 680.65625 88.910156 680.574219 87.269531 680.414062 85.632812 C 680.253906 84 680.011719 82.375 679.691406 80.765625 C 679.371094 79.152344 678.972656 77.5625 678.496094 75.988281 C 678.019531 74.417969 677.464844 72.871094 676.835938 71.355469 C 676.207031 69.835938 675.507812 68.355469 674.734375 66.90625 C 673.957031 65.457031 673.113281 64.046875 672.203125 62.683594 C 671.289062 61.316406 670.3125 60 669.269531 58.730469 C 668.226562 57.457031 667.125 56.242188 665.964844 55.082031 C 664.800781 53.917969 663.585938 52.816406 662.316406 51.777344 C 661.046875 50.734375 659.726562 49.753906 658.363281 48.84375 C 656.996094 47.929688 655.589844 47.085938 654.140625 46.3125 C 652.691406 45.539062 651.207031 44.835938 649.6875 44.207031 C 648.171875 43.578125 646.625 43.027344 645.054688 42.550781 C 643.480469 42.074219 641.890625 41.671875 640.277344 41.351562 C 638.667969 41.03125 637.042969 40.792969 635.410156 40.628906 C 633.773438 40.46875 632.136719 40.390625 630.492188 40.390625 L 606.882812 40.390625 L 606.882812 11.070312 C 606.882812 10.359375 606.8125 9.65625 606.671875 8.960938 C 606.535156 8.265625 606.328125 7.589844 606.058594 6.933594 C 605.785156 6.277344 605.453125 5.65625 605.058594 5.0625 C 604.664062 4.472656 604.21875 3.929688 603.714844 3.425781 C 603.214844 2.925781 602.667969 2.476562 602.078125 2.082031 C 601.484375 1.6875 600.863281 1.355469 600.207031 1.082031 C 599.550781 0.8125 598.875 0.605469 598.179688 0.46875 C 597.484375 0.328125 596.78125 0.257812 596.070312 0.257812 L 173.488281 0.257812 C 172.777344 0.257812 172.078125 0.328125 171.378906 0.46875 C 170.683594 0.605469 170.007812 0.8125 169.351562 1.082031 C 168.695312 1.355469 168.074219 1.6875 167.484375 2.082031 C 166.894531 2.476562 166.347656 2.925781 165.84375 3.425781 C 165.34375 3.929688 164.894531 4.472656 164.5 5.0625 C 164.105469 5.65625 163.773438 6.277344 163.5 6.933594 C 163.230469 7.589844 163.023438 8.265625 162.886719 8.960938 C 162.746094 9.65625 162.679688 10.359375 162.679688 11.070312 L 162.679688 40.390625 L 136.730469 40.390625 C 135.089844 40.390625 133.453125 40.476562 131.820312 40.640625 C 130.1875 40.800781 128.566406 41.046875 126.957031 41.367188 C 125.347656 41.691406 123.757812 42.089844 122.1875 42.570312 C 120.621094 43.046875 119.078125 43.601562 117.5625 44.230469 C 116.046875 44.863281 114.566406 45.566406 113.117188 46.339844 C 111.671875 47.117188 110.269531 47.960938 108.902344 48.875 C 107.539062 49.785156 106.226562 50.765625 104.957031 51.804688 C 103.691406 52.847656 102.476562 53.949219 101.316406 55.113281 C 100.15625 56.273438 99.058594 57.488281 98.015625 58.757812 C 96.976562 60.027344 96 61.34375 95.089844 62.710938 C 94.179688 64.074219 93.339844 65.480469 92.566406 66.929688 C 91.792969 68.375 91.09375 69.859375 90.464844 71.375 C 89.835938 72.890625 89.285156 74.433594 88.808594 76.003906 C 88.335938 77.574219 87.9375 79.167969 87.617188 80.777344 C 87.296875 82.386719 87.058594 84.007812 86.894531 85.640625 C 86.734375 87.273438 86.65625 88.910156 86.65625 90.550781 C 86.671875 95.25 86.851562 99.9375 87.195312 104.621094 C 87.535156 109.308594 88.039062 113.972656 88.707031 118.625 C 89.371094 123.273438 90.195312 127.894531 91.179688 132.484375 C 92.167969 137.078125 93.308594 141.632812 94.609375 146.144531 C 95.910156 150.65625 97.367188 155.121094 98.976562 159.53125 C 100.585938 163.945312 102.34375 168.296875 104.253906 172.585938 C 106.167969 176.878906 108.222656 181.097656 110.425781 185.246094 C 112.628906 189.394531 114.972656 193.460938 117.457031 197.445312 C 119.941406 201.433594 122.5625 205.328125 125.316406 209.132812 C 128.070312 212.9375 130.953125 216.640625 133.964844 220.246094 C 136.972656 223.851562 140.105469 227.347656 143.359375 230.734375 C 146.613281 234.125 149.976562 237.394531 153.457031 240.550781 C 156.9375 243.703125 160.519531 246.734375 164.210938 249.644531 C 167.898438 252.550781 171.683594 255.324219 175.566406 257.96875 C 179.449219 260.613281 183.417969 263.121094 187.472656 265.492188 C 191.527344 267.863281 195.660156 270.089844 199.867188 272.171875 C 200.316406 272.386719 200.777344 272.558594 201.25 272.691406 C 227.199219 338.507812 265.339844 388.929688 310.140625 412.453125 L 316.023438 415.480469 C 317.417969 416.28125 318.777344 417.136719 320.101562 418.046875 C 321.425781 418.957031 322.710938 419.921875 323.957031 420.9375 C 325.203125 421.953125 326.402344 423.019531 327.5625 424.132812 C 328.722656 425.246094 329.832031 426.40625 330.894531 427.613281 C 331.957031 428.820312 332.96875 430.066406 333.929688 431.355469 C 334.890625 432.644531 335.796875 433.96875 336.652344 435.332031 C 337.503906 436.695312 338.296875 438.089844 339.035156 439.519531 C 339.773438 440.949219 340.449219 442.402344 341.070312 443.886719 C 341.6875 445.371094 342.242188 446.878906 342.738281 448.40625 C 343.234375 449.9375 343.664062 451.484375 344.03125 453.050781 C 344.402344 454.613281 344.703125 456.191406 344.941406 457.78125 C 345.179688 459.371094 345.355469 460.96875 345.460938 462.570312 C 345.570312 464.175781 345.609375 465.78125 345.585938 467.390625 C 345.5625 468.996094 345.472656 470.601562 345.316406 472.199219 C 345.160156 473.800781 344.941406 475.390625 344.65625 476.972656 C 344.367188 478.554688 344.019531 480.121094 343.605469 481.675781 C 343.191406 483.230469 342.710938 484.761719 342.171875 486.277344 C 341.632812 487.789062 341.03125 489.28125 340.367188 490.746094 C 339.703125 492.207031 338.984375 493.644531 338.203125 495.050781 C 337.421875 496.457031 336.585938 497.828125 335.695312 499.164062 C 334.800781 500.5 333.855469 501.796875 332.855469 503.058594 C 331.859375 504.316406 330.808594 505.535156 329.710938 506.707031 C 328.609375 507.878906 327.464844 509.007812 326.273438 510.085938 C 325.082031 511.164062 323.851562 512.195312 322.574219 513.171875 C 321.300781 514.152344 319.984375 515.074219 318.632812 515.945312 C 317.28125 516.816406 315.898438 517.632812 314.480469 518.386719 C 313.0625 519.144531 311.613281 519.84375 310.140625 520.480469 C 308.664062 521.121094 307.164062 521.695312 305.644531 522.210938 C 304.121094 522.726562 302.578125 523.179688 301.019531 523.570312 C 299.460938 523.957031 297.886719 524.285156 296.300781 524.542969 C 294.714844 524.804688 293.121094 525 291.515625 525.128906 C 289.914062 525.257812 288.308594 525.320312 286.703125 525.320312 C 285 525.320312 283.3125 525.488281 281.640625 525.820312 C 279.972656 526.15625 278.351562 526.648438 276.777344 527.300781 C 275.203125 527.953125 273.710938 528.753906 272.296875 529.703125 C 270.878906 530.648438 269.570312 531.726562 268.367188 532.929688 C 263.4375 537.859375 261.621094 543.828125 261.015625 560.085938 L 184.558594 560.085938 C 183.851562 560.085938 183.148438 560.15625 182.449219 560.292969 C 181.753906 560.433594 181.078125 560.636719 180.421875 560.910156 C 179.765625 561.179688 179.144531 561.515625 178.554688 561.910156 C 177.964844 562.304688 177.417969 562.75 176.914062 563.253906 C 176.414062 563.753906 175.964844 564.300781 175.570312 564.890625 C 175.175781 565.480469 174.84375 566.105469 174.570312 566.761719 C 174.300781 567.414062 174.09375 568.09375 173.957031 568.789062 C 173.816406 569.484375 173.75 570.1875 173.75 570.898438 L 173.75 746.378906 L 147.371094 746.378906 C 146.660156 746.378906 145.957031 746.449219 145.261719 746.585938 C 144.5625 746.722656 143.886719 746.929688 143.234375 747.203125 C 142.578125 747.472656 141.953125 747.804688 141.363281 748.199219 C 140.773438 748.59375 140.226562 749.042969 139.726562 749.542969 C 139.222656 750.046875 138.773438 750.59375 138.378906 751.183594 C 137.984375 751.773438 137.652344 752.394531 137.382812 753.050781 C 137.109375 753.707031 136.90625 754.382812 136.765625 755.078125 C 136.628906 755.777344 136.558594 756.480469 136.558594 757.1875 C 136.558594 757.898438 136.628906 758.601562 136.765625 759.296875 C 136.90625 759.996094 137.109375 760.671875 137.382812 761.328125 C 137.652344 761.980469 137.984375 762.605469 138.378906 763.195312 C 138.773438 763.785156 139.222656 764.332031 139.726562 764.832031 C 140.226562 765.335938 140.773438 765.785156 141.363281 766.179688 C 141.953125 766.574219 142.578125 766.90625 143.234375 767.175781 C 143.886719 767.449219 144.5625 767.652344 145.261719 767.792969 C 145.957031 767.929688 146.660156 768 147.371094 768 L 620.285156 768 C 620.996094 768 621.699219 767.929688 622.394531 767.792969 C 623.09375 767.652344 623.769531 767.449219 624.425781 767.175781 C 625.078125 766.90625 625.703125 766.574219 626.292969 766.179688 C 626.882812 765.785156 627.429688 765.335938 627.929688 764.832031 C 628.433594 764.332031 628.882812 763.785156 629.277344 763.195312 C 629.671875 762.605469 630.003906 761.980469 630.273438 761.328125 C 630.546875 760.671875 630.75 759.996094 630.890625 759.296875 C 631.027344 758.601562 631.097656 757.898438 631.097656 757.1875 C 631.097656 756.480469 631.027344 755.777344 630.890625 755.078125 C 630.75 754.382812 630.546875 753.707031 630.273438 753.050781 C 630.003906 752.394531 629.671875 751.773438 629.277344 751.183594 C 628.882812 750.59375 628.433594 750.046875 627.929688 749.542969 C 627.429688 749.042969 626.882812 748.59375 626.292969 748.199219 C 625.703125 747.804688 625.078125 747.472656 624.425781 747.203125 C 623.769531 746.929688 623.09375 746.722656 622.394531 746.585938 C 621.699219 746.449219 620.996094 746.378906 620.285156 746.378906 Z M 650.558594 70.398438 C 651.910156 71.707031 653.121094 73.136719 654.191406 74.6875 C 655.261719 76.238281 656.164062 77.875 656.90625 79.605469 C 657.652344 81.335938 658.214844 83.121094 658.601562 84.964844 C 658.988281 86.808594 659.191406 88.667969 659.207031 90.550781 C 659.191406 94.21875 659.0625 97.882812 658.824219 101.542969 C 658.585938 105.203125 658.238281 108.851562 657.777344 112.492188 C 657.316406 116.128906 656.75 119.75 656.070312 123.355469 C 655.390625 126.960938 654.601562 130.542969 653.707031 134.097656 C 652.8125 137.65625 651.808594 141.179688 650.699219 144.675781 C 649.589844 148.171875 648.375 151.632812 647.054688 155.054688 C 645.734375 158.476562 644.316406 161.855469 642.789062 165.191406 C 641.265625 168.527344 639.644531 171.816406 637.921875 175.054688 C 636.199219 178.289062 634.378906 181.472656 632.460938 184.601562 C 630.546875 187.730469 628.539062 190.796875 626.4375 193.800781 C 624.335938 196.808594 622.144531 199.746094 619.863281 202.621094 C 617.585938 205.492188 615.21875 208.296875 612.769531 211.023438 C 610.320312 213.753906 607.789062 216.410156 605.179688 218.984375 C 602.570312 221.5625 599.882812 224.058594 597.121094 226.472656 C 594.363281 228.886719 591.53125 231.214844 588.628906 233.457031 C 585.722656 235.699219 582.757812 237.851562 579.722656 239.914062 C 588.605469 211.09375 595.316406 181.777344 599.851562 151.964844 C 604.390625 122.152344 606.703125 92.167969 606.792969 62.011719 L 630.40625 62.011719 C 632.28125 62 634.136719 62.175781 635.976562 62.539062 C 637.816406 62.902344 639.601562 63.441406 641.332031 64.164062 C 643.0625 64.882812 644.703125 65.769531 646.257812 66.820312 C 647.8125 67.867188 649.246094 69.0625 650.558594 70.398438 Z M 514.078125 192.777344 C 520.871094 170.855469 525.65625 148.5 528.429688 125.714844 C 531.207031 102.929688 531.929688 80.082031 530.597656 57.167969 C 530.519531 56.464844 530.511719 55.757812 530.570312 55.054688 C 530.632812 54.347656 530.761719 53.652344 530.957031 52.972656 C 531.152344 52.292969 531.414062 51.636719 531.738281 51.007812 C 532.066406 50.378906 532.449219 49.789062 532.890625 49.234375 C 533.332031 48.679688 533.824219 48.175781 534.363281 47.71875 C 534.902344 47.261719 535.484375 46.859375 536.105469 46.515625 C 536.722656 46.171875 537.371094 45.894531 538.046875 45.675781 C 538.71875 45.460938 539.410156 45.3125 540.113281 45.234375 C 540.820312 45.140625 541.527344 45.125 542.234375 45.175781 C 542.945312 45.226562 543.644531 45.347656 544.328125 45.539062 C 545.015625 45.730469 545.671875 45.992188 546.304688 46.316406 C 546.941406 46.640625 547.535156 47.023438 548.089844 47.464844 C 548.648438 47.910156 549.15625 48.402344 549.613281 48.949219 C 550.070312 49.496094 550.46875 50.078125 550.808594 50.703125 C 551.148438 51.332031 551.421875 51.984375 551.628906 52.664062 C 551.839844 53.34375 551.976562 54.039062 552.046875 54.746094 C 553.632812 79.101562 552.972656 103.398438 550.066406 127.632812 C 547.15625 151.867188 542.050781 175.628906 534.75 198.917969 C 534.585938 199.476562 534.375 200.015625 534.125 200.535156 C 533.871094 201.058594 533.578125 201.558594 533.25 202.035156 C 532.917969 202.511719 532.550781 202.957031 532.144531 203.375 C 531.742188 203.792969 531.308594 204.175781 530.84375 204.523438 C 530.382812 204.871094 529.890625 205.179688 529.378906 205.449219 C 528.867188 205.722656 528.332031 205.949219 527.785156 206.132812 C 527.234375 206.320312 526.671875 206.457031 526.101562 206.554688 C 525.527344 206.648438 524.953125 206.699219 524.371094 206.703125 C 523.34375 206.679688 522.335938 206.535156 521.34375 206.269531 C 520.667969 206.058594 520.019531 205.78125 519.394531 205.445312 C 518.773438 205.105469 518.1875 204.710938 517.644531 204.257812 C 517.097656 203.804688 516.597656 203.308594 516.148438 202.757812 C 515.699219 202.210938 515.308594 201.625 514.96875 201 C 514.632812 200.375 514.363281 199.726562 514.152344 199.050781 C 513.941406 198.371094 513.796875 197.679688 513.722656 196.976562 C 513.644531 196.273438 513.636719 195.566406 513.699219 194.859375 C 513.757812 194.152344 513.886719 193.460938 514.078125 192.777344 Z M 513.5625 219.15625 C 514.269531 219.164062 514.96875 219.238281 515.664062 219.378906 C 516.359375 219.523438 517.03125 219.734375 517.683594 220.011719 C 518.335938 220.285156 518.957031 220.621094 519.542969 221.019531 C 520.128906 221.417969 520.671875 221.871094 521.167969 222.375 C 521.667969 222.878906 522.109375 223.425781 522.5 224.019531 C 522.890625 224.609375 523.21875 225.234375 523.488281 225.890625 C 523.753906 226.546875 523.953125 227.222656 524.089844 227.917969 C 524.222656 228.613281 524.289062 229.316406 524.285156 230.023438 C 524.28125 230.734375 524.207031 231.433594 524.066406 232.128906 C 523.925781 232.824219 523.71875 233.496094 523.441406 234.152344 C 523.167969 234.804688 522.832031 235.425781 522.4375 236.011719 C 522.039062 236.601562 521.589844 237.144531 521.089844 237.640625 C 520.585938 238.140625 520.039062 238.585938 519.449219 238.976562 C 518.855469 239.371094 518.234375 239.699219 517.578125 239.96875 C 516.921875 240.238281 516.246094 240.441406 515.550781 240.578125 C 514.855469 240.710938 514.152344 240.78125 513.445312 240.777344 C 512.738281 240.777344 512.035156 240.707031 511.339844 240.566406 C 510.644531 240.425781 509.972656 240.21875 509.316406 239.945312 C 508.664062 239.675781 508.042969 239.339844 507.453125 238.945312 C 506.863281 238.550781 506.320312 238.101562 505.820312 237.601562 C 505.320312 237.101562 504.871094 236.554688 504.480469 235.964844 C 504.085938 235.375 503.753906 234.753906 503.484375 234.097656 C 503.210938 233.441406 503.007812 232.769531 502.871094 232.074219 C 502.730469 231.378906 502.664062 230.675781 502.664062 229.96875 C 502.664062 229.25 502.734375 228.539062 502.875 227.835938 C 503.015625 227.132812 503.226562 226.453125 503.503906 225.789062 C 503.78125 225.128906 504.117188 224.5 504.519531 223.90625 C 504.921875 223.3125 505.378906 222.765625 505.890625 222.261719 C 506.402344 221.757812 506.957031 221.3125 507.558594 220.917969 C 508.15625 220.527344 508.789062 220.195312 509.457031 219.929688 C 510.121094 219.664062 510.808594 219.464844 511.511719 219.335938 C 512.21875 219.203125 512.929688 219.144531 513.648438 219.15625 Z M 108.535156 90.550781 C 108.539062 89.621094 108.585938 88.6875 108.679688 87.761719 C 108.773438 86.835938 108.914062 85.914062 109.097656 85 C 109.28125 84.085938 109.507812 83.183594 109.78125 82.292969 C 110.050781 81.398438 110.367188 80.523438 110.722656 79.664062 C 111.082031 78.800781 111.480469 77.960938 111.917969 77.136719 C 112.359375 76.316406 112.835938 75.515625 113.355469 74.742188 C 113.871094 73.96875 114.425781 73.21875 115.015625 72.496094 C 115.609375 71.777344 116.230469 71.085938 116.890625 70.425781 C 117.546875 69.765625 118.238281 69.140625 118.957031 68.546875 C 119.675781 67.953125 120.421875 67.398438 121.195312 66.878906 C 121.96875 66.355469 122.765625 65.875 123.589844 65.433594 C 124.410156 64.992188 125.25 64.589844 126.109375 64.230469 C 126.96875 63.871094 127.84375 63.554688 128.734375 63.28125 C 129.625 63.003906 130.527344 62.773438 131.441406 62.589844 C 132.355469 62.402344 133.273438 62.261719 134.203125 62.164062 C 135.128906 62.066406 136.058594 62.015625 136.992188 62.011719 L 162.9375 62.011719 C 163.09375 92.445312 165.496094 122.699219 170.148438 152.773438 C 174.800781 182.847656 181.652344 212.414062 190.699219 241.46875 C 187.578125 239.425781 184.523438 237.289062 181.535156 235.058594 C 178.542969 232.828125 175.625 230.507812 172.78125 228.097656 C 169.933594 225.6875 167.164062 223.191406 164.472656 220.609375 C 161.777344 218.027344 159.167969 215.367188 156.636719 212.625 C 154.109375 209.882812 151.667969 207.066406 149.3125 204.171875 C 146.957031 201.28125 144.695312 198.316406 142.519531 195.285156 C 140.347656 192.253906 138.269531 189.15625 136.289062 185.996094 C 134.308594 182.835938 132.425781 179.617188 130.640625 176.34375 C 128.855469 173.066406 127.175781 169.738281 125.597656 166.359375 C 124.019531 162.980469 122.546875 159.554688 121.179688 156.082031 C 119.8125 152.613281 118.550781 149.105469 117.402344 145.554688 C 116.25 142.007812 115.207031 138.425781 114.277344 134.816406 C 113.347656 131.203125 112.527344 127.566406 111.820312 123.902344 C 111.113281 120.242188 110.523438 116.558594 110.042969 112.859375 C 109.5625 109.160156 109.195312 105.449219 108.945312 101.730469 C 108.695312 98.007812 108.558594 94.28125 108.535156 90.550781 Z M 308.324219 123.675781 L 291.632812 111.566406 C 290.699219 110.921875 289.691406 110.425781 288.605469 110.089844 C 287.519531 109.75 286.410156 109.578125 285.273438 109.578125 C 284.140625 109.578125 283.027344 109.75 281.945312 110.089844 C 280.859375 110.425781 279.851562 110.921875 278.917969 111.566406 L 262.3125 123.675781 L 262.3125 21.882812 L 308.324219 21.882812 Z M 195.023438 746.378906 L 195.023438 581.535156 L 572.285156 581.535156 L 572.285156 746.378906 Z M 195.023438 746.378906 " fill-opacity="1" fill-rule="nonzero"/><path fill="rgb(100%, 100%, 100%)" d="M 269.40625 621.664062 L 502.058594 621.664062 C 502.765625 621.664062 503.46875 621.734375 504.167969 621.871094 C 504.863281 622.011719 505.539062 622.214844 506.195312 622.488281 C 506.851562 622.757812 507.472656 623.09375 508.0625 623.488281 C 508.652344 623.882812 509.199219 624.328125 509.703125 624.832031 C 510.203125 625.332031 510.652344 625.878906 511.046875 626.46875 C 511.441406 627.058594 511.773438 627.683594 512.046875 628.339844 C 512.316406 628.996094 512.523438 629.671875 512.660156 630.367188 C 512.800781 631.0625 512.867188 631.765625 512.867188 632.476562 L 512.867188 695.523438 C 512.867188 696.234375 512.800781 696.9375 512.660156 697.632812 C 512.523438 698.328125 512.316406 699.003906 512.046875 699.660156 C 511.773438 700.316406 511.441406 700.941406 511.046875 701.53125 C 510.652344 702.121094 510.203125 702.667969 509.703125 703.167969 C 509.199219 703.671875 508.652344 704.117188 508.0625 704.511719 C 507.472656 704.90625 506.851562 705.242188 506.195312 705.511719 C 505.539062 705.785156 504.863281 705.988281 504.167969 706.128906 C 503.46875 706.265625 502.765625 706.335938 502.058594 706.335938 L 269.40625 706.335938 C 268.695312 706.335938 267.992188 706.265625 267.296875 706.128906 C 266.597656 705.988281 265.921875 705.785156 265.265625 705.511719 C 264.613281 705.242188 263.988281 704.90625 263.398438 704.511719 C 262.808594 704.117188 262.261719 703.671875 261.761719 703.167969 C 261.257812 702.667969 260.808594 702.121094 260.414062 701.53125 C 260.019531 700.941406 259.6875 700.316406 259.417969 699.660156 C 259.144531 699.003906 258.941406 698.328125 258.800781 697.632812 C 258.664062 696.9375 258.59375 696.234375 258.59375 695.523438 L 258.59375 632.476562 C 258.59375 631.765625 258.664062 631.0625 258.800781 630.367188 C 258.941406 629.671875 259.144531 628.996094 259.417969 628.339844 C 259.6875 627.683594 260.019531 627.058594 260.414062 626.46875 C 260.808594 625.878906 261.257812 625.332031 261.761719 624.832031 C 262.261719 624.328125 262.808594 623.882812 263.398438 623.488281 C 263.988281 623.09375 264.613281 622.757812 265.265625 622.488281 C 265.921875 622.214844 266.597656 622.011719 267.296875 621.871094 C 267.992188 621.734375 268.695312 621.664062 269.40625 621.664062 Z M 269.40625 621.664062 " fill-opacity="1" fill-rule="nonzero"/></svg>