<svg alignement-baseline="central" transform="translate(25 35)" xmlns="http://www.w3.org/2000/svg" viewBox="0 0 300 200"><defs><style>.cls-1{fill:#676767;}.cls-2,.cls-3{fill:#efa324;}.cls-3{font-size:12.25px;font-family:Tahoma-Bold, Tahoma;font-weight:700;}</style></defs><title>Asset 1</title><g id="Layer_2" data-name="Layer 2"><g id="EBEC_Logo_Colors_Fonts" data-name="EBEC Logo, Colors &amp; Fonts"><path class="cls-1" d="M121.43,59.64a18.64,18.64,0,0,0,2.75-3.51l-4.81-4.8a37.1,37.1,0,0,1-2.88,3.37,11.43,11.43,0,1,1-1.82-17.64L105,46.76l4.81,4.81,12.11-12.11,0,0,2.31-2.33a18.4,18.4,0,1,0-2.73,22.55Z"/><path class="cls-2" d="M31.27,42.37a4.47,4.47,0,1,1-4.46,4.47A4.47,4.47,0,0,1,31.27,42.37ZM24.52,32.16l5.61,4.08-4.45,6.14h0c-.07.08-.13.17-.2.26a7.12,7.12,0,0,0-1,6.41c0,.06,0,.13.05.19s.11.27.17.41l.08.2s.05.08.07.13l.25.47h0l.16.24c.08.12.16.26.25.38h0a.43.43,0,0,1,0,.07c.05.05.09.11.14.17h0l4.41,6.07-5.59,4.06A18.29,18.29,0,0,0,1.24,57.55a47.08,47.08,0,0,1,0-21.48A18.28,18.28,0,0,0,24.52,32.16Z"/><path class="cls-2" d="M46.35,30.5a4.47,4.47,0,1,1-5.63-2.86A4.47,4.47,0,0,1,46.35,30.5ZM54,20.93l-2.15,6.6-7.21-2.34h0l-.31-.1a7.09,7.09,0,0,0-6.4,1l-.17.11-.33.29-.17.14a.94.94,0,0,0-.1.1c-.13.12-.25.25-.38.38h0l-.17.22c-.09.11-.2.24-.28.36h0l-.05.06-.12.18h0l-4.42,6.07L26.1,30A18.28,18.28,0,0,0,22.63,6.64,47,47,0,0,1,43.05,0,18.29,18.29,0,0,0,54,20.93Z"/><path class="cls-2" d="M62.29,41.18a4.47,4.47,0,1,1,1-6.24A4.47,4.47,0,0,1,62.29,41.18Zm11.46,4.29H66.81V37.88h0v-.33a7.12,7.12,0,0,0-2.95-5.77l-.16-.13-.37-.22a2,2,0,0,0-.19-.12.75.75,0,0,0-.13-.06,4.3,4.3,0,0,0-.48-.24h0l-.27-.1-.42-.16h0l-.08,0-.21-.06h0l-7.14-2.33,2.14-6.57A18.26,18.26,0,0,0,77.66,11.24,47.16,47.16,0,0,1,90.28,28.62,18.3,18.3,0,0,0,73.75,45.47Z"/><path class="cls-2" d="M57.07,59.64a4.47,4.47,0,1,1,6.23-1A4.46,4.46,0,0,1,57.07,59.64Zm-.54,12.22-2.14-6.6,7.21-2.34h0l.31-.1a7.11,7.11,0,0,0,4.58-4.59c0-.06,0-.12.07-.19s.07-.28.1-.43l.06-.21s0-.09,0-.14.06-.35.08-.53h0c0-.09,0-.19,0-.29s0-.3,0-.44v0a.25.25,0,0,0,0-.08,1.62,1.62,0,0,1,0-.22h0V48.16h6.91A18.29,18.29,0,0,0,90.28,65,47,47,0,0,1,77.66,82.38,18.29,18.29,0,0,0,56.53,71.86Z"/><path class="cls-2" d="M37.89,60.38A4.47,4.47,0,1,1,40.76,66,4.47,4.47,0,0,1,37.89,60.38ZM26.1,63.64l5.62-4.08,4.45,6.14h0l.19.26a7.12,7.12,0,0,0,5.78,2.94h.2l.44,0H43l.14,0a4.89,4.89,0,0,0,.53-.09h0l.28-.08.43-.12h0l.08,0,.2-.08h0l7.14-2.32L54,72.69A18.3,18.3,0,0,0,43.05,93.63,47.14,47.14,0,0,1,22.63,87,18.3,18.3,0,0,0,26.1,63.64Z"/><path class="cls-1" d="M125.77,5.66v40c0,.32,0,.63,0,.94s0,.56,0,.83a18.38,18.38,0,1,0,13.94-18.69v6.77a38.82,38.82,0,0,1,4.45-.34,11.44,11.44,0,1,1-11.4,12.26v-1.7s0-.07,0-.11V32.16h0V5.66Z"/><path class="cls-1" d="M230.21,33.6a18.29,18.29,0,0,1,2.72,3.48l-2.31,2.33,0,0-2.45,2.45a31.72,31.72,0,0,0-2.67-3.09,11.42,11.42,0,0,0-19.79,7.79,11.53,11.53,0,0,0,.48,3.29c.06.18.11.35.17.52s.09.26.14.38,0,.1.05.14,0,.07,0,.11l.18.4a.54.54,0,0,0,.05.11c.06.14.13.26.2.4s.12.2.18.3.1.18.16.27.17.29.27.44l.05.08.25.36s0,0,0,0a11,11,0,0,0,.7.86l.38.38s0,0,0,0a11.44,11.44,0,0,0,16.16,0,36,36,0,0,0,2.91-3.38L233,56.1a18.4,18.4,0,1,1-2.74-22.5Z"/><path class="cls-1" d="M196.21,59.63A18.3,18.3,0,0,0,199,56.11l-4.81-4.8a38.93,38.93,0,0,1-2.87,3.38,11.43,11.43,0,1,1-1.83-17.64l-9.7,9.7,4.8,4.8,12.11-12.11,0,0,2.31-2.32a18,18,0,0,0-2.73-3.48,18.4,18.4,0,1,0,0,26Z"/><text class="cls-3" transform="translate(189.65 76.66)">PORTO</text></g></g></svg>