<svg xmlns="http://www.w3.org/2000/svg" xmlns:xlink="http://www.w3.org/1999/xlink" width="768" viewBox="0 0 768 768" height="768" version="1.0"><defs><clipPath id="d"><path d="M 0 0 L 768 0 L 768 768 L 0 768 Z M 0 0"/></clipPath><clipPath id="c"><path d="M0 0H768V768H0z"/></clipPath><filter x="0%" y="0%" width="100%" xmlns:xlink="http://www.w3.org/1999/xlink" xlink:type="simple" xlink:actuate="onLoad" height="100%" id="a" xlink:show="other"><feColorMatrix values="0 0 0 0 1 0 0 0 0 1 0 0 0 0 1 0 0 0 1 0" color-interpolation-filters="sRGB"/></filter><mask id="b"><g filter="url(#a)"><path fill-opacity=".949" d="M-76.8 -76.8H844.8000000000001V844.8000000000001H-76.8z"/></g></mask></defs><path fill="#FFF" d="M-76.8 -76.8H844.8000000000001V844.8000000000001H-76.8z"/><path fill="#FFF" d="M-76.8 -76.8H844.8000000000001V844.8000000000001H-76.8z"/><g mask="url(#b)"><g><g clip-path="url(#c)"><path fill="#144173" d="M 115.199219 0 L 652.800781 0 C 654.683594 0 656.570312 0.046875 658.453125 0.140625 C 660.335938 0.230469 662.214844 0.371094 664.089844 0.554688 C 665.96875 0.742188 667.839844 0.972656 669.703125 1.246094 C 671.566406 1.523438 673.425781 1.847656 675.273438 2.214844 C 677.125 2.582031 678.960938 2.996094 680.792969 3.453125 C 682.621094 3.910156 684.4375 4.414062 686.242188 4.960938 C 688.042969 5.507812 689.835938 6.101562 691.609375 6.734375 C 693.382812 7.371094 695.144531 8.046875 696.886719 8.769531 C 698.625 9.492188 700.351562 10.253906 702.054688 11.0625 C 703.757812 11.867188 705.441406 12.714844 707.105469 13.605469 C 708.765625 14.492188 710.40625 15.421875 712.023438 16.390625 C 713.640625 17.359375 715.234375 18.367188 716.800781 19.414062 C 718.371094 20.464844 719.910156 21.546875 721.425781 22.671875 C 722.9375 23.792969 724.425781 24.953125 725.882812 26.148438 C 727.339844 27.347656 728.765625 28.578125 730.164062 29.84375 C 731.558594 31.109375 732.925781 32.410156 734.257812 33.742188 C 735.589844 35.074219 736.890625 36.441406 738.15625 37.835938 C 739.421875 39.234375 740.65625 40.660156 741.851562 42.117188 C 743.046875 43.578125 744.207031 45.0625 745.328125 46.578125 C 746.453125 48.089844 747.539062 49.632812 748.585938 51.199219 C 749.632812 52.765625 750.640625 54.359375 751.609375 55.976562 C 752.578125 57.59375 753.507812 59.234375 754.398438 60.894531 C 755.285156 62.558594 756.132812 64.242188 756.9375 65.945312 C 757.746094 67.652344 758.507812 69.375 759.230469 71.117188 C 759.953125 72.859375 760.628906 74.617188 761.265625 76.390625 C 761.902344 78.167969 762.492188 79.957031 763.039062 81.761719 C 763.585938 83.5625 764.089844 85.378906 764.546875 87.210938 C 765.003906 89.039062 765.417969 90.878906 765.785156 92.726562 C 766.152344 94.574219 766.476562 96.433594 766.753906 98.296875 C 767.03125 100.164062 767.261719 102.03125 767.445312 103.910156 C 767.628906 105.785156 767.769531 107.664062 767.859375 109.546875 C 767.953125 111.429688 768 113.316406 768 115.199219 L 768 652.800781 C 768 654.6875 767.953125 656.570312 767.859375 658.453125 C 767.769531 660.335938 767.628906 662.214844 767.445312 664.09375 C 767.261719 665.96875 767.03125 667.839844 766.753906 669.703125 C 766.476562 671.570312 766.152344 673.425781 765.785156 675.273438 C 765.417969 677.125 765.003906 678.964844 764.546875 680.792969 C 764.089844 682.621094 763.585938 684.4375 763.039062 686.242188 C 762.492188 688.046875 761.902344 689.835938 761.265625 691.609375 C 760.628906 693.386719 759.953125 695.144531 759.230469 696.886719 C 758.507812 698.628906 757.746094 700.351562 756.9375 702.054688 C 756.132812 703.757812 755.285156 705.441406 754.398438 707.105469 C 753.507812 708.769531 752.578125 710.410156 751.609375 712.027344 C 750.640625 713.640625 749.632812 715.234375 748.585938 716.800781 C 747.539062 718.371094 746.453125 719.910156 745.328125 721.425781 C 744.207031 722.941406 743.046875 724.425781 741.851562 725.882812 C 740.65625 727.339844 739.421875 728.765625 738.15625 730.164062 C 736.890625 731.5625 735.589844 732.925781 734.257812 734.257812 C 732.925781 735.59375 731.558594 736.890625 730.164062 738.160156 C 728.765625 739.425781 727.339844 740.65625 725.882812 741.851562 C 724.425781 743.046875 722.9375 744.207031 721.425781 745.332031 C 719.910156 746.453125 718.367188 747.539062 716.800781 748.585938 C 715.234375 749.632812 713.640625 750.640625 712.023438 751.609375 C 710.40625 752.582031 708.765625 753.507812 707.105469 754.398438 C 705.441406 755.285156 703.757812 756.132812 702.054688 756.941406 C 700.351562 757.746094 698.625 758.511719 696.886719 759.230469 C 695.144531 759.953125 693.382812 760.632812 691.609375 761.265625 C 689.835938 761.902344 688.042969 762.492188 686.242188 763.039062 C 684.4375 763.585938 682.621094 764.089844 680.792969 764.546875 C 678.960938 765.007812 677.125 765.417969 675.273438 765.789062 C 673.425781 766.15625 671.566406 766.476562 669.703125 766.753906 C 667.839844 767.03125 665.96875 767.261719 664.089844 767.445312 C 662.214844 767.632812 660.335938 767.769531 658.453125 767.863281 C 656.570312 767.953125 654.683594 768 652.800781 768 L 115.199219 768 C 113.316406 768 111.429688 767.953125 109.546875 767.863281 C 107.664062 767.769531 105.785156 767.632812 103.910156 767.445312 C 102.03125 767.261719 100.160156 767.03125 98.296875 766.753906 C 96.433594 766.476562 94.574219 766.15625 92.726562 765.789062 C 90.875 765.417969 89.039062 765.007812 87.207031 764.546875 C 85.378906 764.089844 83.5625 763.585938 81.757812 763.039062 C 79.953125 762.492188 78.164062 761.902344 76.390625 761.265625 C 74.613281 760.632812 72.855469 759.953125 71.113281 759.230469 C 69.371094 758.511719 67.648438 757.746094 65.945312 756.941406 C 64.242188 756.132812 62.558594 755.285156 60.894531 754.398438 C 59.230469 753.507812 57.59375 752.582031 55.976562 751.609375 C 54.359375 750.640625 52.765625 749.632812 51.199219 748.585938 C 49.628906 747.539062 48.089844 746.453125 46.574219 745.332031 C 45.0625 744.207031 43.574219 743.046875 42.117188 741.851562 C 40.660156 740.65625 39.234375 739.425781 37.835938 738.160156 C 36.441406 736.890625 35.074219 735.59375 33.742188 734.257812 C 32.40625 732.925781 31.109375 731.5625 29.84375 730.164062 C 28.578125 728.765625 27.34375 727.339844 26.148438 725.882812 C 24.953125 724.425781 23.792969 722.941406 22.671875 721.425781 C 21.546875 719.910156 20.460938 718.371094 19.414062 716.800781 C 18.367188 715.234375 17.359375 713.640625 16.390625 712.027344 C 15.421875 710.410156 14.492188 708.769531 13.601562 707.105469 C 12.714844 705.441406 11.867188 703.757812 11.058594 702.054688 C 10.253906 700.351562 9.492188 698.628906 8.769531 696.886719 C 8.046875 695.144531 7.371094 693.386719 6.734375 691.609375 C 6.097656 689.835938 5.507812 688.046875 4.960938 686.242188 C 4.414062 684.4375 3.910156 682.621094 3.453125 680.792969 C 2.996094 678.964844 2.582031 677.125 2.214844 675.273438 C 1.847656 673.425781 1.523438 671.570312 1.246094 669.703125 C 0.96875 667.839844 0.738281 665.96875 0.554688 664.09375 C 0.371094 662.214844 0.230469 660.335938 0.140625 658.453125 C 0.046875 656.570312 0 654.6875 0 652.800781 L 0 115.199219 C 0 113.316406 0.046875 111.429688 0.140625 109.546875 C 0.230469 107.664062 0.371094 105.785156 0.554688 103.910156 C 0.738281 102.03125 0.96875 100.164062 1.246094 98.296875 C 1.523438 96.433594 1.847656 94.574219 2.214844 92.726562 C 2.582031 90.878906 2.996094 89.039062 3.453125 87.210938 C 3.910156 85.378906 4.414062 83.5625 4.960938 81.761719 C 5.507812 79.957031 6.097656 78.167969 6.734375 76.390625 C 7.371094 74.617188 8.046875 72.859375 8.769531 71.117188 C 9.492188 69.375 10.253906 67.652344 11.058594 65.945312 C 11.867188 64.242188 12.714844 62.558594 13.601562 60.894531 C 14.492188 59.234375 15.421875 57.59375 16.390625 55.976562 C 17.359375 54.359375 18.367188 52.765625 19.414062 51.199219 C 20.460938 49.632812 21.546875 48.089844 22.671875 46.578125 C 23.792969 45.0625 24.953125 43.578125 26.148438 42.117188 C 27.34375 40.660156 28.578125 39.234375 29.84375 37.835938 C 31.109375 36.441406 32.40625 35.074219 33.742188 33.742188 C 35.074219 32.410156 36.441406 31.109375 37.835938 29.84375 C 39.234375 28.578125 40.660156 27.347656 42.117188 26.148438 C 43.574219 24.953125 45.0625 23.792969 46.574219 22.671875 C 48.089844 21.546875 49.628906 20.464844 51.199219 19.414062 C 52.765625 18.367188 54.359375 17.359375 55.976562 16.390625 C 57.59375 15.421875 59.230469 14.492188 60.894531 13.605469 C 62.558594 12.714844 64.242188 11.867188 65.945312 11.0625 C 67.648438 10.253906 69.371094 9.492188 71.113281 8.769531 C 72.855469 8.046875 74.613281 7.371094 76.390625 6.734375 C 78.164062 6.101562 79.953125 5.507812 81.757812 4.960938 C 83.5625 4.414062 85.378906 3.910156 87.207031 3.453125 C 89.039062 2.996094 90.875 2.582031 92.726562 2.214844 C 94.574219 1.847656 96.433594 1.523438 98.296875 1.246094 C 100.160156 0.972656 102.03125 0.742188 103.910156 0.554688 C 105.785156 0.371094 107.664062 0.230469 109.546875 0.140625 C 111.429688 0.046875 113.316406 0 115.199219 0 Z M 115.199219 0"/><g clip-path="url(#d)"><path transform="matrix(1.5 0 0 1.5 0 .001)" fill="none" d="M 186.000007 107.999367 L 326.000014 107.999367 C 327.276056 107.999367 328.552098 108.030617 329.828139 108.093117 C 331.101577 108.155617 332.375014 108.249367 333.645848 108.374367 C 334.916681 108.501971 336.182306 108.658221 337.445327 108.843117 C 338.708348 109.030617 339.966161 109.249367 341.216161 109.499367 C 342.468765 109.746763 343.713557 110.028013 344.95314 110.337909 C 346.190119 110.647805 347.42189 110.98895 348.643244 111.358742 C 349.864599 111.728534 351.075536 112.129576 352.278661 112.559263 C 353.479182 112.988951 354.669286 113.449888 355.848974 113.936867 C 357.028661 114.426451 358.195328 114.942076 359.348974 115.488951 C 360.50262 116.035826 361.643245 116.608742 362.768245 117.210305 C 363.895849 117.811867 365.005224 118.442076 366.098974 119.098326 C 367.195329 119.754576 368.273454 120.436868 369.33335 121.145201 C 370.39585 121.853534 371.440121 122.590514 372.463558 123.35093 C 373.4896 124.111347 374.494808 124.895201 375.481787 125.705097 C 376.468767 126.514993 377.434913 127.348326 378.382829 128.205097 C 379.328142 129.061868 380.252621 129.942076 381.153663 130.845722 C 382.057309 131.749368 382.937517 132.673847 383.794288 133.61916 C 384.651059 134.564472 385.484392 135.530618 386.294288 136.517598 C 387.104184 137.504577 387.890642 138.509785 388.651059 139.535827 C 389.411476 140.561869 390.145851 141.603535 390.854184 142.666035 C 391.562517 143.725931 392.247413 144.804056 392.903663 145.900411 C 393.559913 146.994161 394.187518 148.10614 394.78908 149.23114 C 395.390643 150.35614 395.966163 151.496765 396.510434 152.650411 C 397.057309 153.804057 397.572934 154.970724 398.062518 156.150411 C 398.552101 157.330099 399.010434 158.520203 399.440122 159.723328 C 399.869809 160.923849 400.270851 162.137391 400.640643 163.358745 C 401.013039 164.580099 401.35158 165.809266 401.661476 167.046245 C 401.971372 168.285828 402.252622 169.53062 402.500018 170.783224 C 402.750018 172.035829 402.968768 173.291037 403.156268 174.554058 C 403.343768 175.817079 403.500018 177.085308 403.625018 178.353537 C 403.750018 179.624371 403.843768 180.897808 403.906268 182.17385 C 403.968768 183.447287 404.000018 184.723329 404.000018 185.999371 L 404.000018 325.999378 C 404.000018 327.27542 403.968768 328.551461 403.906268 329.827503 C 403.843768 331.103545 403.750018 332.374378 403.625018 333.645212 C 403.500018 334.916045 403.343768 336.18167 403.156268 337.444691 C 402.968768 338.707712 402.750018 339.965524 402.500018 341.218129 C 402.252622 342.468129 401.971372 343.71292 401.661476 344.952504 C 401.35158 346.189483 401.013039 347.421254 400.640643 348.642608 C 400.270851 349.863962 399.869809 351.0749 399.440122 352.278025 C 399.010434 353.478546 398.552101 354.66865 398.062518 355.848338 C 397.572934 357.028025 397.057309 358.194692 396.510434 359.348338 C 395.966163 360.501984 395.390643 361.642609 394.78908 362.770213 C 394.187518 363.895213 393.559913 365.004588 392.903663 366.100942 C 392.247413 367.194692 391.562517 368.272817 390.854184 369.335317 C 390.145851 370.395213 389.411476 371.439484 388.651059 372.465526 C 387.890642 373.488963 387.104184 374.496776 386.294288 375.483755 C 385.484392 376.46813 384.651059 377.43688 383.794288 378.382193 C 382.937517 379.327505 382.057309 380.251985 381.153663 381.153026 C 380.252621 382.056672 379.328142 382.936881 378.382829 383.793651 C 377.434913 384.650422 376.468767 385.483756 375.481787 386.293652 C 374.494808 387.103547 373.4896 387.890006 372.463558 388.650423 C 371.440121 389.410839 370.39585 390.145214 369.33335 390.853548 C 368.273454 391.564485 367.195329 392.246777 366.098974 392.903027 C 365.005224 393.559277 363.895849 394.186881 362.768245 394.791048 C 361.643245 395.39261 360.50262 395.965527 359.348974 396.512402 C 358.195328 397.056673 357.028661 397.574902 355.848974 398.061881 C 354.669286 398.551465 353.479182 399.009798 352.278661 399.439486 C 351.075536 399.869173 349.864599 400.270215 348.643244 400.642611 C 347.42189 401.012402 346.190119 401.350944 344.95314 401.663444 C 343.713557 401.97334 342.468765 402.251986 341.216161 402.501986 C 339.966161 402.749382 338.708348 402.968132 337.445327 403.155632 C 336.182306 403.343132 334.916681 403.499382 333.645848 403.624382 C 332.375014 403.749382 331.101577 403.843132 329.828139 403.905632 C 328.552098 403.968132 327.276056 403.999382 326.000014 403.999382 L 186.000007 403.999382 C 184.723965 403.999382 183.447924 403.968132 182.171882 403.905632 C 180.898444 403.843132 179.625007 403.749382 178.354173 403.624382 C 177.08334 403.499382 175.817715 403.343132 174.554694 403.155632 C 173.291673 402.968132 172.033861 402.749382 170.783861 402.501986 C 169.531256 402.251986 168.286465 401.97334 167.046881 401.663444 C 165.809902 401.350944 164.578131 401.012402 163.356777 400.642611 C 162.135423 400.270215 160.924485 399.869173 159.72136 399.439486 C 158.520839 399.009798 157.330735 398.551465 156.151047 398.061881 C 154.97136 397.574902 153.804693 397.056673 152.651047 396.512402 C 151.497401 395.965527 150.356776 395.39261 149.231776 394.791048 C 148.104172 394.186881 146.994797 393.559277 145.901047 392.903027 C 144.804693 392.246777 143.726568 391.564485 142.666672 390.853548 C 141.604172 390.145214 140.559901 389.410839 139.536463 388.650423 C 138.510422 387.890006 137.505213 387.103547 136.518234 386.293652 C 135.531255 385.483756 134.565109 384.650422 133.617192 383.793651 C 132.67188 382.936881 131.7474 382.056672 130.846359 381.153026 C 129.942713 380.251985 129.062504 379.327505 128.205734 378.382193 C 127.348963 377.43688 126.515629 376.46813 125.705733 375.483755 C 124.895838 374.496776 124.109379 373.488963 123.348962 372.465526 C 122.588546 371.439484 121.854171 370.395213 121.145837 369.335317 C 120.4349 368.272817 119.752608 367.194692 119.096358 366.100942 C 118.440108 365.004588 117.812504 363.895213 117.210941 362.770213 C 116.609379 361.642609 116.033858 360.501984 115.489587 359.348338 C 114.942712 358.194692 114.427087 357.028025 113.937504 355.848338 C 113.44792 354.66865 112.989587 353.478546 112.559899 352.278025 C 112.130212 351.0749 111.72917 349.863962 111.359379 348.642608 C 110.986983 347.421254 110.648441 346.189483 110.338545 344.952504 C 110.028649 343.71292 109.747399 342.468129 109.500003 341.218129 C 109.250003 339.965524 109.031253 338.707712 108.843753 337.444691 C 108.656253 336.18167 108.500003 334.916045 108.375003 333.645212 C 108.250003 332.374378 108.156253 331.103545 108.093753 329.827503 C 108.031253 328.551461 108.000003 327.27542 108.000003 325.999378 L 108.000003 185.999371 C 108.000003 184.723329 108.031253 183.447287 108.093753 182.17385 C 108.156253 180.897808 108.250003 179.624371 108.375003 178.353537 C 108.500003 177.085308 108.656253 175.817079 108.843753 174.554058 C 109.031253 173.291037 109.250003 172.035829 109.500003 170.783224 C 109.747399 169.53062 110.028649 168.285828 110.338545 167.046245 C 110.648441 165.809266 110.986983 164.580099 111.359379 163.358745 C 111.72917 162.137391 112.130212 160.923849 112.559899 159.723328 C 112.989587 158.520203 113.44792 157.330099 113.937504 156.150411 C 114.427087 154.970724 114.942712 153.804057 115.489587 152.650411 C 116.033858 151.496765 116.609379 150.35614 117.210941 149.23114 C 117.812504 148.10614 118.440108 146.994161 119.096358 145.900411 C 119.752608 144.804056 120.4349 143.725931 121.145837 142.666035 C 121.854171 141.603535 122.588546 140.561869 123.348962 139.535827 C 124.109379 138.509785 124.895838 137.504577 125.705733 136.517598 C 126.515629 135.530618 127.348963 134.564472 128.205734 133.61916 C 129.062504 132.673847 129.942713 131.749368 130.846359 130.845722 C 131.7474 129.942076 132.67188 129.061868 133.617192 128.205097 C 134.565109 127.348326 135.531255 126.514993 136.518234 125.705097 C 137.505213 124.895201 138.510422 124.111347 139.536463 123.35093 C 140.559901 122.590514 141.604172 121.853534 142.666672 121.145201 C 143.726568 120.436868 144.804693 119.754576 145.901047 119.098326 C 146.994797 118.442076 148.104172 117.811867 149.231776 117.210305 C 150.356776 116.608742 151.497401 116.035826 152.651047 115.488951 C 153.804693 114.942076 154.97136 114.426451 156.151047 113.936867 C 157.330735 113.449888 158.520839 112.988951 159.72136 112.559263 C 160.924485 112.129576 162.135423 111.728534 163.356777 111.358742 C 164.578131 110.98895 165.809902 110.647805 167.046881 110.337909 C 168.286465 110.028013 169.531256 109.746763 170.783861 109.499367 C 172.033861 109.249367 173.291673 109.030617 174.554694 108.843117 C 175.817715 108.658221 177.08334 108.501971 178.354173 108.374367 C 179.625007 108.249367 180.898444 108.155617 182.171882 108.093117 C 183.447924 108.030617 184.723965 107.999367 186.000007 107.999367 Z M 186.000007 107.999367" stroke="#FFF" stroke-width="29"/></g><path transform="matrix(1.5 0 0 1.5 0 .001)" fill="none" d="M 325.000014 255.999374 C 325.000014 257.129583 324.971368 258.257187 324.916681 259.384791 C 324.861993 260.512395 324.77866 261.64 324.666681 262.762396 C 324.557306 263.887396 324.419285 265.007187 324.252618 266.124375 C 324.088556 267.241562 323.893243 268.353542 323.674493 269.460312 C 323.453139 270.569688 323.205743 271.67125 322.932306 272.765 C 322.658868 273.861354 322.356785 274.949896 322.02866 276.030625 C 321.700535 277.111355 321.346368 278.181667 320.96616 279.244167 C 320.585951 280.309271 320.179701 281.361355 319.74741 282.405626 C 319.315118 283.447292 318.856785 284.481147 318.375014 285.50198 C 317.893243 286.522813 317.38543 287.530626 316.851576 288.525418 C 316.320326 289.522813 315.763034 290.504584 315.182305 291.473334 C 314.601576 292.442084 313.997409 293.39521 313.372409 294.335314 C 312.744805 295.272814 312.093763 296.197293 311.421888 297.103543 C 310.747409 298.009793 310.054701 298.900418 309.338555 299.772814 C 308.622409 300.64521 307.882826 301.501981 307.125013 302.337918 C 306.367201 303.173856 305.588555 303.991564 304.789076 304.791043 C 303.992201 305.587918 303.174492 306.366564 302.338555 307.124377 C 301.500013 307.884794 300.645846 308.621773 299.77345 309.337919 C 298.901054 310.054065 298.010429 310.749377 297.104179 311.421252 C 296.195325 312.093127 295.27345 312.744169 294.333346 313.371773 C 293.395846 313.999377 292.442721 314.603544 291.473971 315.184273 C 290.505221 315.765002 289.52345 316.31969 288.526054 316.853544 C 287.531262 317.384794 286.520846 317.892607 285.500012 318.374377 C 284.479179 318.858752 283.447929 319.314482 282.406262 319.746773 C 281.361991 320.179065 280.307304 320.585315 279.244803 320.965523 C 278.182303 321.345732 277.109387 321.699898 276.028657 322.028023 C 274.947928 322.356148 273.861991 322.658232 272.765636 322.931669 C 271.669282 323.207711 270.56772 323.455107 269.460949 323.673857 C 268.354178 323.895211 267.242199 324.087919 266.125011 324.251982 C 265.007824 324.418649 263.888032 324.556669 262.763032 324.668649 C 261.640636 324.778024 260.513032 324.861357 259.385428 324.916044 C 258.257823 324.973336 257.130219 324.999378 256.000011 324.999378 C 254.869802 324.999378 253.742198 324.973336 252.614594 324.916044 C 251.48699 324.861357 250.359385 324.778024 249.236989 324.668649 C 248.111989 324.556669 246.992198 324.418649 245.87501 324.251982 C 244.757823 324.087919 243.645843 323.895211 242.539073 323.673857 C 241.432302 323.455107 240.330739 323.207711 239.234385 322.931669 C 238.138031 322.658232 237.052093 322.356148 235.971364 322.028023 C 234.890635 321.699898 233.817718 321.345732 232.755218 320.965523 C 231.690114 320.585315 230.63803 320.179065 229.593759 319.746773 C 228.552093 319.314482 227.518238 318.858752 226.497405 318.374377 C 225.476572 317.892607 224.468759 317.384794 223.473967 316.853544 C 222.476572 316.31969 221.494801 315.765002 220.526051 315.184273 C 219.557301 314.603544 218.604175 313.999377 217.666675 313.371773 C 216.726571 312.744169 215.804696 312.093127 214.895842 311.421252 C 213.989592 310.749377 213.098967 310.054065 212.226571 309.337919 C 211.354175 308.621773 210.500008 307.884794 209.661467 307.124377 C 208.825529 306.366564 208.007821 305.587918 207.208342 304.791043 C 206.411467 303.991564 205.632821 303.173856 204.875008 302.337918 C 204.117196 301.501981 203.377612 300.64521 202.661466 299.772814 C 201.94532 298.900418 201.252612 298.009793 200.578133 297.103543 C 199.906258 296.197293 199.255216 295.272814 198.627612 294.335314 C 198.000008 293.39521 197.398445 292.442084 196.817716 291.473334 C 196.236987 290.504584 195.679695 289.522813 195.148445 288.525418 C 194.614591 287.530626 194.106778 286.522813 193.625008 285.50198 C 193.140633 284.481147 192.684903 283.447292 192.252612 282.405626 C 191.82032 281.361355 191.41407 280.309271 191.033862 279.244167 C 190.653653 278.181667 190.299487 277.111355 189.971362 276.030625 C 189.643237 274.949896 189.341153 273.861354 189.067716 272.765 C 188.794278 271.67125 188.546882 270.569688 188.325528 269.460312 C 188.106778 268.353542 187.911466 267.241562 187.747403 266.124375 C 187.580736 265.007187 187.442716 263.887396 187.333341 262.762396 C 187.221361 261.64 187.138028 260.512395 187.083341 259.384791 C 187.028653 258.257187 187.000007 257.129583 187.000007 255.999374 C 187.000007 254.87177 187.028653 253.741562 187.083341 252.613957 C 187.138028 251.486353 187.221361 250.361353 187.333341 249.236353 C 187.442716 248.113957 187.580736 246.991561 187.747403 245.874374 C 187.911466 244.75979 188.106778 243.645207 188.325528 242.538436 C 188.546882 241.431665 188.794278 240.330103 189.067716 239.233749 C 189.341153 238.139998 189.643237 237.051457 189.971362 235.970728 C 190.299487 234.889998 190.653653 233.817082 191.033862 232.754582 C 191.41407 231.692081 191.82032 230.637394 192.252612 229.595727 C 192.684903 228.551456 193.140633 227.520206 193.625008 226.499373 C 194.106778 225.478539 194.614591 224.470727 195.148445 223.473331 C 195.679695 222.478539 196.236987 221.496768 196.817716 220.528018 C 197.398445 219.559268 198.000008 218.603539 198.627612 217.666039 C 199.255216 216.725935 199.906258 215.80406 200.578133 214.89781 C 201.252612 213.988956 201.94532 213.100935 202.661466 212.225935 C 203.377612 211.353539 204.117196 210.499372 204.875008 209.663435 C 205.632821 208.824893 206.411467 208.007184 207.208342 207.210309 C 208.007821 206.41083 208.825529 205.632184 209.661467 204.874372 C 210.500008 204.116559 211.354175 203.37958 212.226571 202.663434 C 213.098967 201.944684 213.989592 201.251976 214.895842 200.577497 C 215.804696 199.905622 216.726571 199.257184 217.666675 198.62958 C 218.604175 198.001976 219.557301 197.397809 220.526051 196.81708 C 221.494801 196.236351 222.476572 195.679059 223.473967 195.147809 C 224.468759 194.613955 225.476572 194.108746 226.497405 193.624371 C 227.518238 193.1426 228.552093 192.684267 229.593759 192.251975 C 230.63803 191.819684 231.690114 191.413434 232.755218 191.033225 C 233.817718 190.653017 234.890635 190.29885 235.971364 189.970725 C 237.052093 189.6426 238.138031 189.343121 239.234385 189.067079 C 240.330739 188.793642 241.432302 188.546246 242.539073 188.324892 C 243.645843 188.106142 244.757823 187.913433 245.87501 187.746767 C 246.992198 187.5801 248.111989 187.442079 249.236989 187.332704 C 250.359385 187.220725 251.48699 187.137392 252.614594 187.082704 C 253.742198 187.028017 254.869802 186.999371 256.000011 186.999371 C 257.130219 186.999371 258.257823 187.028017 259.385428 187.082704 C 260.513032 187.137392 261.640636 187.220725 262.763032 187.332704 C 263.888032 187.442079 265.007824 187.5801 266.125011 187.746767 C 267.242199 187.913433 268.354178 188.106142 269.460949 188.324892 C 270.56772 188.546246 271.669282 188.793642 272.765636 189.067079 C 273.861991 189.343121 274.947928 189.6426 276.028657 189.970725 C 277.109387 190.29885 278.182303 190.653017 279.244803 191.033225 C 280.307304 191.413434 281.361991 191.819684 282.406262 192.251975 C 283.447929 192.684267 284.479179 193.1426 285.500012 193.624371 C 286.520846 194.108746 287.531262 194.613955 288.526054 195.147809 C 289.52345 195.679059 290.505221 196.236351 291.473971 196.81708 C 292.442721 197.397809 293.395846 198.001976 294.333346 198.62958 C 295.27345 199.257184 296.195325 199.905622 297.104179 200.577497 C 298.010429 201.251976 298.901054 201.944684 299.77345 202.663434 C 300.645846 203.37958 301.500013 204.116559 302.338555 204.874372 C 303.174492 205.632184 303.992201 206.41083 304.789076 207.210309 C 305.588555 208.007184 306.367201 208.824893 307.125013 209.663435 C 307.882826 210.499372 308.622409 211.353539 309.338555 212.225935 C 310.054701 213.100935 310.747409 213.988956 311.421888 214.89781 C 312.093763 215.80406 312.744805 216.725935 313.372409 217.666039 C 314.000014 218.603539 314.601576 219.559268 315.182305 220.528018 C 315.763034 221.496768 316.320326 222.478539 316.851576 223.473331 C 317.38543 224.470727 317.893243 225.478539 318.375014 226.499373 C 318.856785 227.520206 319.315118 228.551456 319.74741 229.595727 C 320.179701 230.637394 320.585951 231.692081 320.96616 232.754582 C 321.346368 233.817082 321.700535 234.889998 322.02866 235.970728 C 322.356785 237.051457 322.658868 238.139998 322.932306 239.233749 C 323.205743 240.330103 323.453139 241.431665 323.674493 242.538436 C 323.893243 243.645207 324.088556 244.75979 324.252618 245.874374 C 324.419285 246.991561 324.557306 248.113957 324.666681 249.236353 C 324.77866 250.361353 324.861993 251.486353 324.916681 252.613957 C 324.971368 253.741562 325.000014 254.87177 325.000014 255.999374 Z M 325.000014 255.999374" stroke="#FFF" stroke-width="29"/><path fill="#FFF" d="M 543 253.5 C 543 254.433594 542.953125 255.367188 542.863281 256.292969 C 542.769531 257.222656 542.632812 258.144531 542.453125 259.0625 C 542.269531 259.976562 542.042969 260.878906 541.773438 261.773438 C 541.5 262.667969 541.1875 263.546875 540.832031 264.40625 C 540.472656 265.269531 540.074219 266.113281 539.632812 266.9375 C 539.195312 267.757812 538.714844 268.558594 538.195312 269.335938 C 537.679688 270.109375 537.121094 270.859375 536.53125 271.582031 C 535.9375 272.300781 535.3125 272.992188 534.652344 273.652344 C 533.992188 274.3125 533.300781 274.941406 532.582031 275.53125 C 531.859375 276.125 531.109375 276.679688 530.332031 277.199219 C 529.558594 277.714844 528.757812 278.195312 527.933594 278.636719 C 527.113281 279.074219 526.269531 279.472656 525.40625 279.832031 C 524.542969 280.1875 523.667969 280.503906 522.773438 280.773438 C 521.878906 281.042969 520.976562 281.269531 520.058594 281.453125 C 519.144531 281.636719 518.222656 281.773438 517.292969 281.863281 C 516.363281 281.957031 515.433594 282 514.5 282 C 513.566406 282 512.636719 281.957031 511.707031 281.863281 C 510.777344 281.773438 509.855469 281.636719 508.941406 281.453125 C 508.023438 281.269531 507.121094 281.042969 506.226562 280.773438 C 505.332031 280.503906 504.457031 280.1875 503.59375 279.832031 C 502.730469 279.472656 501.886719 279.074219 501.066406 278.636719 C 500.242188 278.195312 499.441406 277.714844 498.667969 277.199219 C 497.890625 276.679688 497.140625 276.125 496.417969 275.53125 C 495.699219 274.941406 495.007812 274.3125 494.347656 273.652344 C 493.6875 272.992188 493.0625 272.300781 492.46875 271.582031 C 491.878906 270.859375 491.320312 270.109375 490.804688 269.335938 C 490.285156 268.558594 489.804688 267.757812 489.363281 266.9375 C 488.925781 266.113281 488.527344 265.269531 488.167969 264.40625 C 487.8125 263.546875 487.5 262.667969 487.226562 261.773438 C 486.957031 260.878906 486.730469 259.976562 486.546875 259.0625 C 486.367188 258.144531 486.230469 257.222656 486.136719 256.292969 C 486.046875 255.367188 486 254.433594 486 253.5 C 486 252.566406 486.046875 251.636719 486.136719 250.707031 C 486.230469 249.777344 486.367188 248.855469 486.546875 247.941406 C 486.730469 247.023438 486.957031 246.121094 487.226562 245.226562 C 487.5 244.335938 487.8125 243.457031 488.167969 242.59375 C 488.527344 241.730469 488.925781 240.890625 489.363281 240.066406 C 489.804688 239.242188 490.285156 238.441406 490.804688 237.667969 C 491.320312 236.890625 491.878906 236.140625 492.46875 235.421875 C 493.0625 234.699219 493.6875 234.007812 494.347656 233.347656 C 495.007812 232.6875 495.699219 232.0625 496.417969 231.46875 C 497.140625 230.878906 497.890625 230.324219 498.667969 229.804688 C 499.441406 229.285156 500.242188 228.804688 501.066406 228.367188 C 501.886719 227.925781 502.730469 227.527344 503.59375 227.171875 C 504.457031 226.8125 505.332031 226.5 506.226562 226.226562 C 507.121094 225.957031 508.023438 225.730469 508.941406 225.546875 C 509.855469 225.367188 510.777344 225.230469 511.707031 225.136719 C 512.636719 225.046875 513.566406 225 514.5 225 C 515.433594 225 516.363281 225.046875 517.292969 225.136719 C 518.222656 225.230469 519.144531 225.367188 520.058594 225.546875 C 520.976562 225.730469 521.878906 225.957031 522.773438 226.226562 C 523.667969 226.5 524.542969 226.8125 525.40625 227.171875 C 526.269531 227.527344 527.113281 227.925781 527.933594 228.367188 C 528.757812 228.804688 529.558594 229.285156 530.332031 229.804688 C 531.109375 230.324219 531.859375 230.878906 532.582031 231.46875 C 533.300781 232.0625 533.992188 232.6875 534.652344 233.347656 C 535.3125 234.007812 535.9375 234.699219 536.53125 235.421875 C 537.121094 236.140625 537.679688 236.890625 538.195312 237.667969 C 538.714844 238.441406 539.195312 239.242188 539.632812 240.066406 C 540.074219 240.890625 540.472656 241.730469 540.832031 242.59375 C 541.1875 243.457031 541.5 244.335938 541.773438 245.226562 C 542.042969 246.121094 542.269531 247.023438 542.453125 247.941406 C 542.632812 248.855469 542.769531 249.777344 542.863281 250.707031 C 542.953125 251.636719 543 252.566406 543 253.5 Z M 543 253.5"/></g></g></g></svg>