<svg xmlns="http://www.w3.org/2000/svg" xmlns:xlink="http://www.w3.org/1999/xlink" width="768" viewBox="0 0 768 768" height="768" version="1.0"><defs><clipPath id="c"><path d="M0 0H768V768H0z"/></clipPath><filter x="0%" y="0%" width="100%" xmlns:xlink="http://www.w3.org/1999/xlink" xlink:type="simple" xlink:actuate="onLoad" height="100%" id="a" xlink:show="other"><feColorMatrix values="0 0 0 0 1 0 0 0 0 1 0 0 0 0 1 0 0 0 1 0" color-interpolation-filters="sRGB"/></filter><mask id="b"><g filter="url(#a)"><path fill-opacity=".949" d="M-76.8 -76.8H844.8000000000001V844.8000000000001H-76.8z"/></g></mask></defs><path fill="#FFF" d="M-76.8 -76.8H844.8000000000001V844.8000000000001H-76.8z"/><path fill="#FFF" d="M-76.8 -76.8H844.8000000000001V844.8000000000001H-76.8z"/><g mask="url(#b)"><g><g clip-path="url(#c)"><path fill="#144173" d="M 115.199219 0 L 652.800781 0 C 654.683594 0 656.570312 0.046875 658.453125 0.140625 C 660.335938 0.230469 662.214844 0.371094 664.089844 0.554688 C 665.96875 0.742188 667.839844 0.972656 669.703125 1.246094 C 671.566406 1.523438 673.425781 1.847656 675.273438 2.214844 C 677.125 2.582031 678.960938 2.996094 680.792969 3.453125 C 682.621094 3.910156 684.4375 4.414062 686.242188 4.960938 C 688.042969 5.507812 689.835938 6.101562 691.609375 6.734375 C 693.382812 7.371094 695.144531 8.046875 696.886719 8.769531 C 698.625 9.492188 700.351562 10.253906 702.054688 11.0625 C 703.757812 11.867188 705.441406 12.714844 707.105469 13.605469 C 708.765625 14.492188 710.40625 15.421875 712.023438 16.390625 C 713.640625 17.359375 715.234375 18.367188 716.800781 19.414062 C 718.371094 20.464844 719.910156 21.546875 721.425781 22.671875 C 722.9375 23.792969 724.425781 24.953125 725.882812 26.148438 C 727.339844 27.347656 728.765625 28.578125 730.164062 29.84375 C 731.558594 31.109375 732.925781 32.410156 734.257812 33.742188 C 735.589844 35.074219 736.890625 36.441406 738.15625 37.835938 C 739.421875 39.234375 740.65625 40.660156 741.851562 42.117188 C 743.046875 43.578125 744.207031 45.0625 745.328125 46.578125 C 746.453125 48.089844 747.539062 49.632812 748.585938 51.199219 C 749.632812 52.765625 750.640625 54.359375 751.609375 55.976562 C 752.578125 57.59375 753.507812 59.234375 754.398438 60.894531 C 755.285156 62.558594 756.132812 64.242188 756.9375 65.945312 C 757.746094 67.652344 758.507812 69.375 759.230469 71.117188 C 759.953125 72.859375 760.628906 74.617188 761.265625 76.390625 C 761.902344 78.167969 762.492188 79.957031 763.039062 81.761719 C 763.585938 83.5625 764.089844 85.378906 764.546875 87.210938 C 765.003906 89.039062 765.417969 90.878906 765.785156 92.726562 C 766.152344 94.574219 766.476562 96.433594 766.753906 98.296875 C 767.03125 100.164062 767.261719 102.03125 767.445312 103.910156 C 767.628906 105.785156 767.769531 107.664062 767.859375 109.546875 C 767.953125 111.429688 768 113.316406 768 115.199219 L 768 652.800781 C 768 654.6875 767.953125 656.570312 767.859375 658.453125 C 767.769531 660.335938 767.628906 662.214844 767.445312 664.09375 C 767.261719 665.96875 767.03125 667.839844 766.753906 669.703125 C 766.476562 671.570312 766.152344 673.425781 765.785156 675.273438 C 765.417969 677.125 765.003906 678.964844 764.546875 680.792969 C 764.089844 682.621094 763.585938 684.4375 763.039062 686.242188 C 762.492188 688.046875 761.902344 689.835938 761.265625 691.609375 C 760.628906 693.386719 759.953125 695.144531 759.230469 696.886719 C 758.507812 698.628906 757.746094 700.351562 756.9375 702.054688 C 756.132812 703.757812 755.285156 705.441406 754.398438 707.105469 C 753.507812 708.769531 752.578125 710.410156 751.609375 712.027344 C 750.640625 713.640625 749.632812 715.234375 748.585938 716.800781 C 747.539062 718.371094 746.453125 719.910156 745.328125 721.425781 C 744.207031 722.941406 743.046875 724.425781 741.851562 725.882812 C 740.65625 727.339844 739.421875 728.765625 738.15625 730.164062 C 736.890625 731.5625 735.589844 732.925781 734.257812 734.257812 C 732.925781 735.59375 731.558594 736.890625 730.164062 738.160156 C 728.765625 739.425781 727.339844 740.65625 725.882812 741.851562 C 724.425781 743.046875 722.9375 744.207031 721.425781 745.332031 C 719.910156 746.453125 718.367188 747.539062 716.800781 748.585938 C 715.234375 749.632812 713.640625 750.640625 712.023438 751.609375 C 710.40625 752.582031 708.765625 753.507812 707.105469 754.398438 C 705.441406 755.285156 703.757812 756.132812 702.054688 756.941406 C 700.351562 757.746094 698.625 758.511719 696.886719 759.230469 C 695.144531 759.953125 693.382812 760.632812 691.609375 761.265625 C 689.835938 761.902344 688.042969 762.492188 686.242188 763.039062 C 684.4375 763.585938 682.621094 764.089844 680.792969 764.546875 C 678.960938 765.007812 677.125 765.417969 675.273438 765.789062 C 673.425781 766.15625 671.566406 766.476562 669.703125 766.753906 C 667.839844 767.03125 665.96875 767.261719 664.089844 767.445312 C 662.214844 767.632812 660.335938 767.769531 658.453125 767.863281 C 656.570312 767.953125 654.683594 768 652.800781 768 L 115.199219 768 C 113.316406 768 111.429688 767.953125 109.546875 767.863281 C 107.664062 767.769531 105.785156 767.632812 103.910156 767.445312 C 102.03125 767.261719 100.160156 767.03125 98.296875 766.753906 C 96.433594 766.476562 94.574219 766.15625 92.726562 765.789062 C 90.875 765.417969 89.039062 765.007812 87.207031 764.546875 C 85.378906 764.089844 83.5625 763.585938 81.757812 763.039062 C 79.953125 762.492188 78.164062 761.902344 76.390625 761.265625 C 74.613281 760.632812 72.855469 759.953125 71.113281 759.230469 C 69.371094 758.511719 67.648438 757.746094 65.945312 756.941406 C 64.242188 756.132812 62.558594 755.285156 60.894531 754.398438 C 59.230469 753.507812 57.59375 752.582031 55.976562 751.609375 C 54.359375 750.640625 52.765625 749.632812 51.199219 748.585938 C 49.628906 747.539062 48.089844 746.453125 46.574219 745.332031 C 45.0625 744.207031 43.574219 743.046875 42.117188 741.851562 C 40.660156 740.65625 39.234375 739.425781 37.835938 738.160156 C 36.441406 736.890625 35.074219 735.59375 33.742188 734.257812 C 32.40625 732.925781 31.109375 731.5625 29.84375 730.164062 C 28.578125 728.765625 27.34375 727.339844 26.148438 725.882812 C 24.953125 724.425781 23.792969 722.941406 22.671875 721.425781 C 21.546875 719.910156 20.460938 718.371094 19.414062 716.800781 C 18.367188 715.234375 17.359375 713.640625 16.390625 712.027344 C 15.421875 710.410156 14.492188 708.769531 13.601562 707.105469 C 12.714844 705.441406 11.867188 703.757812 11.058594 702.054688 C 10.253906 700.351562 9.492188 698.628906 8.769531 696.886719 C 8.046875 695.144531 7.371094 693.386719 6.734375 691.609375 C 6.097656 689.835938 5.507812 688.046875 4.960938 686.242188 C 4.414062 684.4375 3.910156 682.621094 3.453125 680.792969 C 2.996094 678.964844 2.582031 677.125 2.214844 675.273438 C 1.847656 673.425781 1.523438 671.570312 1.246094 669.703125 C 0.96875 667.839844 0.738281 665.96875 0.554688 664.09375 C 0.371094 662.214844 0.230469 660.335938 0.140625 658.453125 C 0.046875 656.570312 0 654.6875 0 652.800781 L 0 115.199219 C 0 113.316406 0.046875 111.429688 0.140625 109.546875 C 0.230469 107.664062 0.371094 105.785156 0.554688 103.910156 C 0.738281 102.03125 0.96875 100.164062 1.246094 98.296875 C 1.523438 96.433594 1.847656 94.574219 2.214844 92.726562 C 2.582031 90.878906 2.996094 89.039062 3.453125 87.210938 C 3.910156 85.378906 4.414062 83.5625 4.960938 81.761719 C 5.507812 79.957031 6.097656 78.167969 6.734375 76.390625 C 7.371094 74.617188 8.046875 72.859375 8.769531 71.117188 C 9.492188 69.375 10.253906 67.652344 11.058594 65.945312 C 11.867188 64.242188 12.714844 62.558594 13.601562 60.894531 C 14.492188 59.234375 15.421875 57.59375 16.390625 55.976562 C 17.359375 54.359375 18.367188 52.765625 19.414062 51.199219 C 20.460938 49.632812 21.546875 48.089844 22.671875 46.578125 C 23.792969 45.0625 24.953125 43.578125 26.148438 42.117188 C 27.34375 40.660156 28.578125 39.234375 29.84375 37.835938 C 31.109375 36.441406 32.40625 35.074219 33.742188 33.742188 C 35.074219 32.410156 36.441406 31.109375 37.835938 29.84375 C 39.234375 28.578125 40.660156 27.347656 42.117188 26.148438 C 43.574219 24.953125 45.0625 23.792969 46.574219 22.671875 C 48.089844 21.546875 49.628906 20.464844 51.199219 19.414062 C 52.765625 18.367188 54.359375 17.359375 55.976562 16.390625 C 57.59375 15.421875 59.230469 14.492188 60.894531 13.605469 C 62.558594 12.714844 64.242188 11.867188 65.945312 11.0625 C 67.648438 10.253906 69.371094 9.492188 71.113281 8.769531 C 72.855469 8.046875 74.613281 7.371094 76.390625 6.734375 C 78.164062 6.101562 79.953125 5.507812 81.757812 4.960938 C 83.5625 4.414062 85.378906 3.910156 87.207031 3.453125 C 89.039062 2.996094 90.875 2.582031 92.726562 2.214844 C 94.574219 1.847656 96.433594 1.523438 98.296875 1.246094 C 100.160156 0.972656 102.03125 0.742188 103.910156 0.554688 C 105.785156 0.371094 107.664062 0.230469 109.546875 0.140625 C 111.429688 0.046875 113.316406 0 115.199219 0 Z M 115.199219 0"/><path fill="#FFF" d="M 268.5 207 C 268.5 208.820312 268.410156 210.632812 268.234375 212.441406 C 268.054688 214.25 267.789062 216.046875 267.433594 217.828125 C 267.078125 219.609375 266.636719 221.371094 266.109375 223.113281 C 265.582031 224.851562 264.972656 226.558594 264.273438 228.238281 C 263.578125 229.917969 262.804688 231.558594 261.945312 233.164062 C 261.089844 234.765625 260.15625 236.324219 259.148438 237.835938 C 258.136719 239.347656 257.054688 240.804688 255.902344 242.210938 C 254.75 243.613281 253.53125 244.960938 252.246094 246.246094 C 250.960938 247.53125 249.613281 248.75 248.207031 249.902344 C 246.804688 251.054688 245.34375 252.136719 243.835938 253.148438 C 242.324219 254.15625 240.765625 255.089844 239.164062 255.949219 C 237.558594 256.804688 235.917969 257.582031 234.238281 258.277344 C 232.558594 258.972656 230.851562 259.582031 229.109375 260.109375 C 227.371094 260.640625 225.609375 261.078125 223.828125 261.433594 C 222.042969 261.789062 220.25 262.054688 218.441406 262.234375 C 216.632812 262.410156 214.816406 262.5 213 262.5 C 211.183594 262.5 209.367188 262.410156 207.558594 262.234375 C 205.75 262.054688 203.957031 261.789062 202.171875 261.433594 C 200.390625 261.078125 198.628906 260.640625 196.890625 260.109375 C 195.148438 259.582031 193.441406 258.972656 191.761719 258.277344 C 190.082031 257.582031 188.441406 256.804688 186.835938 255.949219 C 185.234375 255.089844 183.675781 254.15625 182.164062 253.148438 C 180.65625 252.136719 179.195312 251.054688 177.792969 249.902344 C 176.386719 248.75 175.039062 247.53125 173.753906 246.246094 C 172.46875 244.960938 171.25 243.613281 170.097656 242.210938 C 168.945312 240.804688 167.863281 239.347656 166.851562 237.835938 C 165.84375 236.324219 164.910156 234.765625 164.054688 233.164062 C 163.195312 231.558594 162.421875 229.917969 161.726562 228.238281 C 161.027344 226.558594 160.417969 224.851562 159.890625 223.113281 C 159.363281 221.371094 158.921875 219.609375 158.566406 217.828125 C 158.210938 216.046875 157.945312 214.25 157.765625 212.441406 C 157.589844 210.632812 157.5 208.820312 157.5 207 C 157.5 205.183594 157.589844 203.371094 157.765625 201.5625 C 157.945312 199.753906 158.210938 197.957031 158.566406 196.171875 C 158.921875 194.390625 159.363281 192.628906 159.890625 190.890625 C 160.417969 189.152344 161.027344 187.441406 161.726562 185.761719 C 162.421875 184.082031 163.195312 182.441406 164.054688 180.839844 C 164.910156 179.234375 165.84375 177.679688 166.851562 176.167969 C 167.863281 174.65625 168.945312 173.195312 170.097656 171.792969 C 171.25 170.386719 172.46875 169.042969 173.753906 167.757812 C 175.039062 166.472656 176.386719 165.253906 177.792969 164.097656 C 179.195312 162.945312 180.65625 161.863281 182.164062 160.855469 C 183.675781 159.84375 185.234375 158.910156 186.835938 158.054688 C 188.441406 157.199219 190.082031 156.421875 191.761719 155.726562 C 193.441406 155.03125 195.148438 154.417969 196.890625 153.890625 C 198.628906 153.363281 200.390625 152.921875 202.171875 152.566406 C 203.957031 152.210938 205.75 151.945312 207.558594 151.769531 C 209.367188 151.589844 211.183594 151.5 213 151.5 C 214.816406 151.5 216.632812 151.589844 218.441406 151.769531 C 220.25 151.945312 222.042969 152.210938 223.828125 152.566406 C 225.609375 152.921875 227.371094 153.363281 229.109375 153.890625 C 230.851562 154.417969 232.558594 155.03125 234.238281 155.726562 C 235.917969 156.421875 237.558594 157.199219 239.164062 158.054688 C 240.765625 158.910156 242.324219 159.84375 243.835938 160.855469 C 245.34375 161.863281 246.804688 162.945312 248.207031 164.097656 C 249.613281 165.253906 250.960938 166.472656 252.246094 167.757812 C 253.53125 169.042969 254.75 170.386719 255.902344 171.792969 C 257.054688 173.195312 258.136719 174.65625 259.148438 176.167969 C 260.15625 177.679688 261.089844 179.234375 261.945312 180.839844 C 262.804688 182.441406 263.578125 184.082031 264.273438 185.761719 C 264.972656 187.441406 265.582031 189.152344 266.109375 190.890625 C 266.636719 192.628906 267.078125 194.390625 267.433594 196.171875 C 267.789062 197.957031 268.054688 199.753906 268.234375 201.5625 C 268.410156 203.371094 268.5 205.183594 268.5 207 Z M 268.5 207"/><path transform="matrix(1.5 0 0 1.5 0 .001)" fill="#FFF" d="M 244.00001 193.999371 L 244.00001 391.999381 M 142.000005 193.999371 L 142.000005 391.999381" stroke="#FFF" stroke-width="66"/><path fill="#FFF" d="M 414 423 C 414 393 433.5 363 468 363 C 504 363 517.5 390 517.5 430.5 L 517.5 588 L 616.5 588 L 616.5 418.5 C 616.5 327 568.5 285 502.5 285 C 451.5 285 426 313.5 414 333"/></g></g></g></svg>