<svg xmlns="http://www.w3.org/2000/svg" width="768" viewBox="0 0 768 768" height="768" version="1.0"><defs><clipPath id="a"><path d="M 38.398438 0 L 729.898438 0 L 729.898438 768 L 38.398438 768 Z M 38.398438 0"/></clipPath></defs><path fill="#FFF" d="M-76.8 -76.8H844.8000000000001V844.8000000000001H-76.8z"/><path fill="#FFF" d="M-76.8 -76.8H844.8000000000001V844.8000000000001H-76.8z"/><g clip-path="url(#a)"><path fill="#FFF" d="M 558.175781 386.304688 L 517.457031 345.601562 L 329.984375 532.992188 L 248.539062 451.582031 L 207.816406 492.289062 L 329.984375 614.398438 Z M 653.066406 76.800781 L 614.648438 76.800781 L 614.648438 0.00390625 L 537.816406 0.00390625 L 537.816406 76.800781 L 230.484375 76.800781 L 230.484375 0.00390625 L 153.648438 0.00390625 L 153.648438 76.800781 L 115.234375 76.800781 C 72.78125 76.800781 38.785156 111.167969 38.785156 153.601562 L 38.398438 691.199219 C 38.398438 733.628906 72.78125 767.996094 115.234375 767.996094 L 653.066406 767.996094 C 695.515625 767.996094 729.898438 733.628906 729.898438 691.199219 L 729.898438 153.601562 C 729.898438 111.167969 695.515625 76.800781 653.066406 76.800781 Z M 653.066406 691.199219 L 115.234375 691.199219 L 115.234375 268.800781 L 653.066406 268.800781 Z M 653.066406 691.199219"/></g></svg>