<?xml version="1.0" encoding="UTF-8"?><svg xmlns="http://www.w3.org/2000/svg" xmlns:xlink="http://www.w3.org/1999/xlink" contentScriptType="text/ecmascript" width="768" zoomAndPan="magnify" contentStyleType="text/css" viewBox="0 0 768 767.999994" height="767.999994" preserveAspectRatio="xMidYMid meet" version="1.0"><defs><clipPath id="clip-0"><path d="M 0 139.636719 L 768 139.636719 L 768 628.636719 L 0 628.636719 Z M 0 139.636719 " clip-rule="nonzero"/></clipPath></defs><rect x="-76.8" width="921.6" fill="rgb(100%, 100%, 100%)" y="-76.799999" height="921.599993" fill-opacity="1"/><rect x="-76.8" width="921.6" fill="rgb(100%, 100%, 100%)" y="-76.799999" height="921.599993" fill-opacity="1"/><rect x="-76.8" width="921.6" fill="rgb(20, 65, 115)" y="-76.799999" height="921.599993" fill-opacity="1"/><g clip-path="url(#clip-0)"><path fill="rgb(100%, 100%, 100%)" d="M 523.632812 349.207031 C 581.40625 349.207031 628.011719 302.230469 628.011719 244.421875 C 628.011719 186.617188 581.40625 139.636719 523.632812 139.636719 C 465.859375 139.636719 418.910156 186.617188 418.910156 244.421875 C 418.910156 302.230469 465.859375 349.207031 523.632812 349.207031 Z M 244.367188 349.207031 C 302.140625 349.207031 348.742188 302.230469 348.742188 244.421875 C 348.742188 186.617188 302.140625 139.636719 244.367188 139.636719 C 186.59375 139.636719 139.640625 186.617188 139.640625 244.421875 C 139.640625 302.230469 186.59375 349.207031 244.367188 349.207031 Z M 244.367188 419.066406 C 162.855469 419.066406 0.0078125 459.929688 0.0078125 541.316406 L 0.0078125 628.636719 L 488.726562 628.636719 L 488.726562 541.316406 C 488.726562 459.929688 325.878906 419.066406 244.367188 419.066406 Z M 523.632812 419.066406 C 513.511719 419.066406 502.164062 419.761719 489.945312 420.984375 C 530.441406 450.152344 558.542969 489.445312 558.542969 541.316406 L 558.542969 628.636719 L 767.992188 628.636719 L 767.992188 541.316406 C 767.992188 459.929688 605.144531 419.066406 523.632812 419.066406 Z M 523.632812 419.066406 " fill-opacity="1" fill-rule="nonzero"/></g></svg>