<svg xmlns="http://www.w3.org/2000/svg" viewBox="0 0 334.15 135.74"><defs><style>.cls-1,.cls-6{fill:#031927;}.cls-2,.cls-5{fill:#508aa8;}.cls-3,.cls-4{fill:#ba1200;}.cls-4{stroke:#ba1200;}.cls-4,.cls-5,.cls-6{stroke-miterlimit:10;}.cls-5{stroke:#508aa8;}.cls-6{stroke:#031927;}</style></defs><g id="Layer_2" data-name="Layer 2"><g id="Logos"><path class="cls-1" d="M181,53.84l-4.2,3.36a17,17,0,0,0-3-2.57,9.06,9.06,0,0,0-8.44.41,3.86,3.86,0,0,0-1.74,3.25,3.93,3.93,0,0,0,1.51,3,21.09,21.09,0,0,0,5.18,2.89,35.85,35.85,0,0,1,5.7,2.92,14.54,14.54,0,0,1,3.34,3,11.92,11.92,0,0,1,1.95,3.45,11.57,11.57,0,0,1,.64,3.83,10.8,10.8,0,0,1-3.44,8,11.55,11.55,0,0,1-8.33,3.33,14.13,14.13,0,0,1-8.41-2.6,16.32,16.32,0,0,1-5.62-7.81l5.18-1.46q2.83,6.41,8.67,6.4a6.8,6.8,0,0,0,4.71-1.69,5.51,5.51,0,0,0,1.88-4.27,5.75,5.75,0,0,0-1-3.1,8.78,8.78,0,0,0-2.44-2.56,26.75,26.75,0,0,0-4.65-2.31A33.29,33.29,0,0,1,163.58,67a12.79,12.79,0,0,1-3-2.59,10.87,10.87,0,0,1-1.84-3,8.59,8.59,0,0,1-.58-3.18,8.9,8.9,0,0,1,3.27-6.94,11.69,11.69,0,0,1,8-2.87,16.17,16.17,0,0,1,6.28,1.34A12.88,12.88,0,0,1,181,53.84Z"/><path class="cls-1" d="M206.26,80v5.91a15.44,15.44,0,0,1-7.68,2.26,13.08,13.08,0,0,1-12.75-12.66,12.75,12.75,0,0,1,3.81-9.47,13,13,0,0,1,9.56-3.76,15.93,15.93,0,0,1,7.06,1.78v5.77a13.77,13.77,0,0,0-7.38-2.5,8,8,0,0,0-5.63,2.26,7,7,0,0,0-2.42,5.29,8,8,0,0,0,2.27,5.76A7.43,7.43,0,0,0,198.64,83C200.86,83,203.41,82,206.26,80Z"/><path class="cls-1" d="M210.35,54.91a3.76,3.76,0,0,1,1.19-2.78A3.9,3.9,0,0,1,214.37,51a4,4,0,0,1,0,7.91,3.93,3.93,0,0,1-2.83-1.16A3.74,3.74,0,0,1,210.35,54.91ZM211.81,63h5.12V87.5h-5.12Z"/><path class="cls-1" d="M222.86,49.62h23.2v5.17H237V87.5h-5.13V54.79h-9Z"/><path class="cls-1" d="M271.05,76.23h-21a8.26,8.26,0,0,0,3.12,5.52,8.88,8.88,0,0,0,5.28,1.74,9.16,9.16,0,0,0,7.39-3.66l3.79,2.85a13.71,13.71,0,0,1-11.41,5.5,12.39,12.39,0,0,1-9.18-3.74,12.74,12.74,0,0,1-3.69-9.31,12.42,12.42,0,0,1,3.74-9,12.69,12.69,0,0,1,18.21.06A13.6,13.6,0,0,1,271.05,76.23ZM250.62,72.1h15Q263.13,67,258.25,67A7.84,7.84,0,0,0,250.62,72.1Z"/><path class="cls-1" d="M308.2,50.93v5.86a26,26,0,0,0-11.29-3,15.65,15.65,0,0,0-11.14,4.27,14.35,14.35,0,0,0,.1,21,16.53,16.53,0,0,0,11.61,4.24,22,22,0,0,0,10.72-3.18V86A23.38,23.38,0,0,1,297,88.78a21.07,21.07,0,0,1-15.07-6,19.12,19.12,0,0,1-6.26-14.36,18.86,18.86,0,0,1,6.15-14.14,20.64,20.64,0,0,1,14.82-5.89A29.82,29.82,0,0,1,308.2,50.93Z"/><path class="cls-1" d="M312.73,48.91h5.18V67a17.84,17.84,0,0,1,4-3.58,8.7,8.7,0,0,1,4.54-1.11,7.24,7.24,0,0,1,5.41,2.39,8,8,0,0,1,2.28,5.72V87.5H329V71.86a5.62,5.62,0,0,0-1.17-3.72,3.88,3.88,0,0,0-3.12-1.39,6.32,6.32,0,0,0-4.78,2.11,7.2,7.2,0,0,0-2,5.11V87.5h-5.18Z"/><path class="cls-1" d="M117.41,55.09a4.55,4.55,0,1,1-4.55-4.54A4.55,4.55,0,0,1,117.41,55.09Z"/><path class="cls-1" d="M71.86,68.18a11,11,0,1,1-11-11A11,11,0,0,1,71.86,68.18Z"/><path class="cls-2" d="M43.73,108.57c-.3-1-.69-2.52-1-3.6H39.89c.31,1.35.75,3.11,1.1,4.39.12.41.88.45,1.64.22S43.82,109,43.73,108.57Z"/><path class="cls-3" d="M33.27,31.79c1.18.27,2.38.58,3.6.91l.21-.72c-1.24-.36-2.46-.69-3.65-1-.18,0-.37.14-.41.36A.34.34,0,0,0,33.27,31.79Z"/><path class="cls-2" d="M72.32,130.55A4.55,4.55,0,1,1,67.78,126,4.54,4.54,0,0,1,72.32,130.55Z"/><path class="cls-3" d="M19.39,30a4.55,4.55,0,1,1-4.54-4.55A4.54,4.54,0,0,1,19.39,30Z"/><path class="cls-4" d="M118.44,101.66c-6.65,11.52-37.89,6.15-70.39-12.62S-4.9,46.23,1.75,34.71c1.58-2.73,4.55-4.52,8.6-5.39a5.06,5.06,0,0,0,0,.68,4.57,4.57,0,0,0,.25,1.49,9.7,9.7,0,0,0-5,4C-.64,46.3,19,69.25,49.35,86.8s60.07,23,66.28,12.27S102.25,65.34,71.86,47.8C56,38.61,40.24,32.73,28,30.76c-.78-.13-1.54-.24-2.29-.33v-1c.75.11,1.52.24,2.29.39,12.57,2.34,28.2,8.32,44.14,17.52C104.63,66.1,125.09,90.14,118.44,101.66Z"/><path class="cls-5" d="M84.18,68c0,31.82-7.75,58.17-18.21,65.44V130C76.08,123.76,83.65,98.34,83.65,68c0-35.09-10.09-63.54-22.52-63.54S38.61,32.86,38.61,68c0,31.88,8.32,58.28,19.17,62.84v4.3C45.57,131.85,36,103.27,36,68,36,30.42,46.8.5,60.1.5S84.18,30.42,84.18,68Z"/><path class="cls-6" d="M110.79,57.79l-.9-.77c6.16-8.09,8.52-15.31,5.75-20.11-6.22-10.77-35.9-5.27-66.29,12.27s-50,40.5-43.77,51.27,35.9,5.28,66.29-12.27c14.06-8.12,25.81-17.38,33.75-26.07l.76.62C98,71.39,86.22,80.53,72.14,88.65,39.63,107.41,8.4,112.78,1.75,101.27S15.55,65.7,48.06,46.94s63.73-24.13,70.38-12.62C121.65,39.89,118.54,48.38,110.79,57.79Z"/></g></g></svg>