<svg xmlns="http://www.w3.org/2000/svg" xmlns:xlink="http://www.w3.org/1999/xlink" width="768" viewBox="0 0 768 768" height="768" version="1.0"><defs><clipPath id="c"><path d="M0 0H768V768H0z"/></clipPath><filter x="0%" y="0%" width="100%" xmlns:xlink="http://www.w3.org/1999/xlink" xlink:type="simple" xlink:actuate="onLoad" height="100%" id="a" xlink:show="other"><feColorMatrix values="0 0 0 0 1 0 0 0 0 1 0 0 0 0 1 0 0 0 1 0" color-interpolation-filters="sRGB"/></filter><mask id="b"><g filter="url(#a)"><path fill-opacity=".949" d="M-76.8 -76.8H844.8000000000001V844.8000000000001H-76.8z"/></g></mask></defs><path fill="#FFF" d="M-76.8 -76.8H844.8000000000001V844.8000000000001H-76.8z"/><path fill="#FFF" d="M-76.8 -76.8H844.8000000000001V844.8000000000001H-76.8z"/><g mask="url(#b)"><g><g clip-path="url(#c)"><path fill="#144173" d="M 768 651.285156 C 768 715.652344 715.652344 768 651.285156 768 L 116.714844 768 C 52.347656 768 0 715.652344 0 651.285156 L 0 116.714844 C 0 52.347656 52.347656 0 116.714844 0 L 651.285156 0 C 715.652344 0 768 52.347656 768 116.714844 Z M 768 651.285156"/><path fill="#FFF" d="M 656.226562 390.078125 C 656.226562 432.542969 656.226562 477.546875 646.742188 518.679688 C 640.066406 547.65625 616.429688 568.890625 587.851562 572.09375 C 520.414062 579.574219 452.039062 579.707031 384.066406 579.574219 C 315.960938 579.574219 247.855469 579.574219 180.28125 572.09375 C 151.835938 568.890625 128.066406 547.65625 121.390625 518.679688 C 111.90625 477.546875 111.90625 432.542969 111.90625 390.078125 C 111.90625 347.609375 112.042969 302.605469 121.390625 261.476562 C 128.066406 232.496094 151.703125 211.265625 180.28125 208.058594 C 247.855469 200.449219 316.09375 200.449219 384.066406 200.449219 C 452.039062 200.449219 520.28125 200.449219 587.851562 208.058594 C 616.296875 211.265625 640.066406 232.496094 646.742188 261.476562 C 656.226562 302.605469 656.226562 347.609375 656.226562 390.078125 Z M 656.226562 390.078125"/><path fill="#144173" d="M 326.777344 288.851562 L 326.777344 492.238281 L 484.757812 390.476562 Z M 326.777344 288.851562"/></g></g></g></svg>